<?xml version="1.0" encoding="UTF-8" standalone="no"?>
<!-- Created with Inkscape (http://www.inkscape.org/) -->

<svg
   xmlns:dc="http://purl.org/dc/elements/1.1/"
   xmlns:cc="http://creativecommons.org/ns#"
   xmlns:rdf="http://www.w3.org/1999/02/22-rdf-syntax-ns#"
   xmlns:svg="http://www.w3.org/2000/svg"
   xmlns="http://www.w3.org/2000/svg"
   xmlns:xlink="http://www.w3.org/1999/xlink"
   xmlns:sodipodi="http://sodipodi.sourceforge.net/DTD/sodipodi-0.dtd"
   xmlns:inkscape="http://www.inkscape.org/namespaces/inkscape"
   sodipodi:docname="campaign.svg"
   inkscape:version="0.48.4 r9939"
   id="svg2"
   height="765"
   width="990"
   version="1.1">
  <sodipodi:namedview
     pagecolor="#702222"
     bordercolor="#666666"
     borderopacity="1"
     objecttolerance="10"
     gridtolerance="10"
     guidetolerance="10"
     inkscape:pageopacity="0"
     inkscape:pageshadow="2"
     inkscape:window-width="1855"
     inkscape:window-height="1056"
     id="namedview2994"
     showgrid="true"
     inkscape:zoom="3.3608369"
     inkscape:cx="581.96196"
     inkscape:cy="300.16597"
     inkscape:window-x="65"
     inkscape:window-y="24"
     inkscape:window-maximized="1"
     inkscape:current-layer="layer2">
    <inkscape:grid
       type="xygrid"
       id="grid3967"
       empspacing="5"
       visible="true"
       enabled="true"
       snapvisiblegridlinesonly="true" />
  </sodipodi:namedview>
  <defs
     id="defs4">
    <inkscape:path-effect
       effect="skeletal"
       id="path-effect11761"
       is_visible="true"
       pattern="m 40.125,0.125 -40,0.4793 40,0"
       copytype="single_stretched"
       prop_scale="1"
       scale_y_rel="false"
       spacing="0"
       normal_offset="0"
       tang_offset="0"
       prop_units="false"
       vertical_pattern="false"
       fuse_tolerance="0" />
    <inkscape:path-effect
       effect="skeletal"
       id="path-effect11753"
       is_visible="true"
       pattern="m 40.125,0.125 -40,0.4793 40,0"
       copytype="single_stretched"
       prop_scale="1"
       scale_y_rel="false"
       spacing="0"
       normal_offset="0"
       tang_offset="0"
       prop_units="false"
       vertical_pattern="false"
       fuse_tolerance="0" />
    <inkscape:path-effect
       effect="skeletal"
       id="path-effect11571"
       is_visible="true"
       pattern="m 32.926981,-16.410891 1,0"
       copytype="single_stretched"
       prop_scale="1"
       scale_y_rel="false"
       spacing="0"
       normal_offset="0"
       tang_offset="0"
       prop_units="false"
       vertical_pattern="false"
       fuse_tolerance="0" />
    <inkscape:path-effect
       fuse_tolerance="0"
       vertical_pattern="false"
       prop_units="false"
       tang_offset="0"
       normal_offset="0"
       spacing="0"
       scale_y_rel="false"
       prop_scale="1"
       copytype="single_stretched"
       pattern="M 0,0 1,0"
       is_visible="true"
       id="path-effect11456"
       effect="skeletal" />
    <inkscape:path-effect
       effect="skeletal"
       id="path-effect10996"
       is_visible="true"
       pattern="M 60.5,1.01649 0.5,0.5 l 60,0"
       copytype="single_stretched"
       prop_scale="1"
       scale_y_rel="false"
       spacing="0"
       normal_offset="0"
       tang_offset="0"
       prop_units="false"
       vertical_pattern="false"
       fuse_tolerance="0" />
    <inkscape:path-effect
       fuse_tolerance="0"
       vertical_pattern="false"
       prop_units="false"
       tang_offset="0"
       normal_offset="0"
       spacing="0"
       scale_y_rel="false"
       prop_scale="1"
       copytype="single_stretched"
       pattern="M 60.5,1.01649 0.5,0.5 l 60,0"
       is_visible="true"
       id="path-effect10849"
       effect="skeletal" />
    <inkscape:path-effect
       fuse_tolerance="0"
       vertical_pattern="false"
       prop_units="false"
       tang_offset="0"
       normal_offset="0"
       spacing="0"
       scale_y_rel="false"
       prop_scale="1"
       copytype="single_stretched"
       pattern="M 560.5,7.8221 0.5,0.5 l 560,5"
       is_visible="true"
       id="path-effect10777"
       effect="skeletal" />
    <inkscape:path-effect
       fuse_tolerance="0"
       vertical_pattern="false"
       prop_units="false"
       tang_offset="0"
       normal_offset="0"
       spacing="0"
       scale_y_rel="false"
       prop_scale="1"
       copytype="single_stretched"
       pattern="m 0.92079208,3.6559442 c 79.99999992,2.41474 154.99999792,0 234.99999792,2.31683 -80,-4.53598 -154.999998,0.0583 -234.99999792,-4.63119"
       is_visible="true"
       id="path-effect4187"
       effect="skeletal" />
    <inkscape:path-effect
       fuse_tolerance="0"
       vertical_pattern="false"
       prop_units="false"
       tang_offset="0"
       normal_offset="0"
       spacing="0"
       scale_y_rel="false"
       prop_scale="1"
       copytype="single_stretched"
       pattern="m 0.5,0.5 105,5 -105,5"
       is_visible="true"
       id="path-effect4176"
       effect="skeletal" />
    <inkscape:path-effect
       fuse_tolerance="0"
       vertical_pattern="false"
       prop_units="false"
       tang_offset="0"
       normal_offset="0"
       spacing="0"
       scale_y_rel="false"
       prop_scale="1"
       copytype="single_stretched"
       pattern="M 0,0 1,0"
       is_visible="true"
       id="path-effect4144"
       effect="skeletal" />
    <inkscape:path-effect
       is_visible="true"
       id="path-effect4113"
       effect="spiro" />
    <inkscape:path-effect
       is_visible="true"
       id="path-effect4109"
       effect="spiro" />
    <inkscape:path-effect
       is_visible="true"
       id="path-effect4105"
       effect="spiro" />
    <inkscape:path-effect
       is_visible="true"
       id="path-effect4101"
       effect="spiro" />
    <inkscape:path-effect
       is_visible="true"
       id="path-effect4097"
       effect="spiro" />
    <inkscape:path-effect
       is_visible="true"
       id="path-effect4093"
       effect="spiro" />
    <inkscape:path-effect
       is_visible="true"
       id="path-effect4089"
       effect="spiro" />
    <inkscape:path-effect
       is_visible="true"
       id="path-effect4085"
       effect="spiro" />
    <inkscape:path-effect
       is_visible="true"
       id="path-effect4081"
       effect="spiro" />
    <inkscape:path-effect
       is_visible="true"
       id="path-effect4077"
       effect="spiro" />
    <inkscape:path-effect
       is_visible="true"
       id="path-effect4073"
       effect="spiro" />
    <linearGradient
       id="linearGradient5553">
      <stop
         offset="0"
         style="stop-color:#000000;stop-opacity:1"
         id="stop5555" />
    </linearGradient>
    <linearGradient
       gradientUnits="userSpaceOnUse"
       xlink:href="#linearGradient5553"
       id="linearGradient5557"
       y2="370.27493"
       x2="990.5"
       y1="370.27493"
       x1="-0.5" />
  </defs>
  <metadata
     id="metadata7">
    <rdf:RDF>
      <cc:Work
         rdf:about="">
        <dc:format>image/svg+xml</dc:format>
        <dc:type
           rdf:resource="http://purl.org/dc/dcmitype/StillImage" />
        <dc:title />
      </cc:Work>
    </rdf:RDF>
  </metadata>
  <g
     sodipodi:insensitive="true"
     style="display:inline"
     inkscape:label="Landmass"
     id="layer3"
     inkscape:groupmode="layer">
    <g
       id="g3772">
      <rect
         style="fill:#b3cccd;fill-opacity:1"
         id="rect2996"
         width="989.60089"
         height="266.68576"
         x="0.94368547"
         y="499.05942"
         ry="1.1901797" />
      <g
         transform="translate(0,-287.36218)"
         id="layer1"
         style="display:inline">
        <path
           inkscape:connector-curvature="0"
           d="M 990,0 0,0 l 0,665.46896 1.2601218,5.25685 1.4795198,1.54818 2.0409255,0.76581 1.5862541,1.49521 2.1578517,0.68791 2.2630261,-0.0909 1.05535,2.09164 2.076142,1.08553 1.973618,-1.02345 2.184615,0.4124 2.077963,-0.50466 2.119213,0.28556 2.079052,0.3899 2.095714,0.28718 2.065339,-0.68886 2.149876,0.34379 1.864256,-0.74306 1.913051,0.60648 1.343538,1.34507 1.602244,1.02328 1.912466,0.20018 1.736092,-0.82679 1.971255,0.12551 1.408711,1.38461 1.888485,-0.0607 1.517356,1.12592 1.785176,0.18145 1.783331,-0.19876 1.618107,0.88603 1.802607,0.39233 1.810412,-0.24505 1.789876,-0.36604 0.299849,1.33982 1.123411,0.7893 1.183317,0.57168 0.813036,1.03249 1.317973,0.29332 1.349789,0.034 1.011482,0.8922 0.846104,1.05034 0.793423,1.1263 1.234887,0.61083 1.345418,0.29172 1.323694,-0.37827 0.766412,1.15568 1.33428,0.37771 1.321053,-0.44869 1.277311,0.56123 -0.255262,1.21267 0.636183,1.06348 0.656964,0.94872 0.635554,0.96319 0.637227,0.99459 0.09188,1.17764 0.726761,0.88569 0.714822,0.89534 0.433422,1.09154 0.718963,0.92865 1.197561,0.32728 0.689213,1.03259 0.935734,0.6487 1.00748,0.53046 1.04389,0.47909 0.863002,0.75794 0.862612,0.98619 1.089041,0.72847 0.861385,1.00962 1.19418,0.57899 0.288332,1.39599 0.994509,1.0212 -0.216589,1.35101 -0.204148,1.35295 -0.09138,1.29823 0.01578,1.30134 0.918114,1.03238 0.05191,1.3806 0.673789,1.17492 1.261471,0.49307 0.858198,0.94793 0.770648,1.02039 1.427539,0.46955 1.430652,-0.45998 1.48373,0.22046 1.08213,1.03878 1.14106,0.96176 1.38865,0.54647 0.46821,1.39796 0.59954,1.34688 1.38806,0.19332 1.34144,0.40575 1.27012,0.74762 0.562,1.36245 1.36965,0.16693 1.37584,0.10407 1.13769,0.78332 1.05042,0.89696 1.72853,0.60359 0.93085,1.5766 1.70238,0.28557 1.62556,0.58069 1.62248,-0.44296 1.65626,-0.29238 1.60199,-0.60747 1.71242,0.0547 1.63637,0.0948 1.60419,0.33661 1.69317,0.36011 1.1024,1.33462 1.51554,0.64456 1.57387,0.48501 1.18209,1.14634 1.06583,1.25516 0.90913,-1.32713 0.61748,-1.48543 0.20282,-1.59362 0.48264,-1.53226 -1.10427,-1.26114 -0.29107,-1.65081 -0.56699,-1.58372 0.37593,-1.63961 -1.49053,-0.74494 -1.59647,-0.47736 -0.45913,-1.66466 -1.27067,-1.16931 0.1459,-1.63803 -0.70331,-1.48655 -0.42687,-1.54991 -0.89415,-1.33602 0.9744,-0.64207 0.65353,-0.96674 0.47545,-1.04262 0.36582,-1.08593 1.0542,-0.55587 0.5834,-1.03921 0.35776,-1.08924 0.52211,-1.0207 0.63123,-1.0119 0.44007,-1.10847 0.15237,-1.22127 -0.48563,-1.13088 1.0196,-0.68203 0.78772,-0.94035 0.47199,-1.17161 -0.21936,-1.24391 3.08326,1.0289 2.79482,1.65956 1.26035,2.97608 1.30462,2.95693 3.08182,0.25472 2.70704,1.49481 3.17475,-0.70976 2.79754,1.6603 3.09346,0.0408 2.80818,1.29818 2.55017,-1.81422 3.11349,-0.3177 3.02872,0.19405 2.73252,1.32063 2.86255,-0.85956 2.96527,-0.37441 1.35556,0.43062 1.10976,0.88962 0.74915,1.23337 1.24836,0.72389 1.34517,-0.52521 1.44076,-0.0976 1.2321,0.89391 1.51708,-0.1249 1.22025,0.58774 1.35397,0.0349 1.23718,0.67434 1.38139,-0.27767 1.23972,-0.80598 1.47101,0.15038 1.25069,0.62148 1.31169,0.47948 1.37845,0.59593 1.46528,-0.32897 1.27674,-0.64689 1.35119,-0.47204 1.49728,0.0886 1.1926,0.90962 1.41911,-0.21332 1.40614,-0.28658 1.05153,1.0164 1.45428,0.15449 1.4434,0.3273 0.85913,1.20515 1.49316,0.18471 0.98982,1.13309 0.69879,1.24704 1.09955,0.91346 1.44267,1.32049 0.61144,1.85773 1.15763,1.67523 1.992,0.42244 1.91228,0.0318 1.74487,0.78311 1.83155,-0.60166 1.90354,0.30508 1.84617,-0.11525 1.47465,-1.1167 1.74847,0.61853 1.79088,-0.48216 1.77469,-0.0508 1.61415,-0.73933 1.62879,-0.61199 1.64214,-0.57523 1.19908,1.00425 1.4913,0.47153 1.48531,-0.40095 1.52814,-0.17802 1.31561,-0.70574 0.86972,-1.21346 1.05897,-1.11788 1.52424,-0.21854 1.36866,-0.006 1.36768,0.0523 1.21819,-0.71375 1.41114,-0.0454 1.35819,0.0198 1.35425,0.10521 1.4212,-0.15858 1.23539,0.72026 0.58113,-1.57943 0.48237,-1.61234 0.73159,-1.51473 0.72676,-1.51705 1.9118,0.11356 1.46455,-1.2341 0.75883,-1.62832 1.18088,-1.35378 1.55183,0.85049 1.76928,-0.0338 1.52159,-0.84718 1.7275,-0.22062 1.76349,0.39922 1.75411,-0.43855 1.37833,-1.09883 1.22204,-1.27037 2.39486,-1.52356 2.80383,0.44168 2.34321,-1.30021 1.90791,-1.88176 2.54569,-0.82622 2.64446,0.41239 2.45605,-0.88746 2.56517,-0.48958 2.27093,1.4356 2.48526,1.02055 2.60104,0.67401 2.44208,1.12071 2.65101,-0.52823 2.54045,-0.92359 2.6958,0.96857 2.69484,-0.97125 0.67291,-1.52268 1.4865,-0.74947 1.13421,-1.10697 0.75899,-1.39133 0.91931,-1.41083 0.88805,-1.43071 -0.31166,-1.65473 -0.32353,-1.65245 -1.16971,-1.19863 -0.36544,-1.63444 -0.0417,-1.63023 0.4585,-1.56497 0.84799,-1.40651 -0.30698,-1.61342 -0.42145,-1.58259 0.72034,-1.47082 0.50866,-1.45881 1.35033,-0.75064 1.10627,-1.00246 1.45644,-0.32798 0.58684,-1.37493 0.82071,-1.24949 -0.44359,-1.44207 0.0382,-1.50826 -0.32247,-1.44972 0.73378,-1.29121 0.048,-1.40224 -0.38744,-1.34851 0.36651,-1.38035 0.36907,-1.37966 1.40253,-0.59183 0.68205,-1.36094 1.44725,-0.68695 1.33857,-0.88015 0.81929,-1.38834 1.15179,-1.12789 1.25054,-0.97816 1.43516,-0.67894 1.22844,-1.00293 1.00404,-1.22754 1.753,-0.37933 1.01909,-1.47593 0.93321,-1.42026 1.39955,-0.964 1.19321,-1.32712 0.16275,-1.77722 0.0316,-1.69364 -0.0132,-1.69388 -0.19868,-1.72504 0.48659,-1.66688 0.66011,-1.60223 1.20458,-1.24575 0.95926,-1.40451 1.45004,-0.88894 1.16123,-1.23502 0.60542,-1.58342 1.3306,-1.04329 0.91827,-1.41975 0.68831,-1.52942 0.99664,-1.34894 1.6957,-0.27807 1.53946,-0.76341 1.46282,-0.92337 1.02107,-1.39638 0.58446,-1.60808 0.0331,-1.71067 0.95593,-1.46399 1.56334,-0.78297 1.00962,-1.26867 1.37924,-0.85239 1.17507,-1.08196 1.1652,-1.09259 1.01589,-1.26432 1.28112,-0.9946 0.18443,-1.66242 1.02001,-1.32561 1.16825,-1.13676 0.46295,-1.56292 1.27317,-1.05853 0.42307,-1.60077 1.90474,-0.65561 1.988,-0.3251 1.9611,-0.54263 2.03115,0.12165 0.96845,-1.8713 1.88578,-0.93995 1.98412,-0.77123 1.03833,-1.85833 1.6337,-1.40667 0.64978,-2.05561 -0.32762,-2.18872 1.18484,-1.86921 2.09975,-0.91071 0.90227,-2.1034 1.98321,-0.91086 2.1819,0.0455 1.22248,-0.19322 1.04394,-0.66482 1.11416,-0.53832 1.23632,-0.0517 1.25715,-0.43095 1.25688,0.43172 1.25757,0.35446 0.88439,0.96175 1.25687,-0.19265 1.01542,-0.76536 1.05858,-0.68551 1.24678,-0.18993 1.00805,0.78261 1.25488,0.2322 1.28149,-0.0712 1.14646,0.57696 1.16369,0.99286 1.26118,0.86567 1.37512,0.69837 1.13236,1.04711 1.65169,0.16694 1.09343,1.24914 1.43644,0.74034 1.60407,-0.19595 1.06538,1.17317 1.30002,0.90628 1.32972,1.03552 0.30252,1.658 0.62529,1.46032 0.003,1.58856 0.58195,1.46842 0.0558,1.57854 1.41517,0.14205 1.32766,0.51009 1.49235,0.23664 0.94641,1.17789 0.81157,1.16934 0.43921,1.35391 1.21094,0.80242 0.68242,1.2824 0.36027,1.43746 -0.50996,1.39141 0.19393,1.41955 0.60773,1.29747 1.28337,0.67843 1.09461,0.95348 0.48083,1.37165 0.80653,1.20918 0.51517,1.14247 0.65604,1.06782 0.89695,0.90108 1.15759,0.52581 0.96615,0.84275 1.26562,0.20467 0.59159,1.15814 1.17114,0.56544 0.95768,0.95907 1.35155,0.1015 1.2484,0.29031 1.12944,0.60592 0.74356,1.18022 -0.0915,1.39191 0.72556,1.17622 1.24406,0.60188 0.96488,0.8146 0.64729,1.08426 0.89628,0.90224 1.18041,0.47329 0.32431,1.22132 -0.17476,1.25151 0.30373,1.20086 0.30898,1.19953 1.05373,0.69384 1.2609,-0.0436 0.88328,0.81542 0.87915,0.81987 1.17817,0.38681 1.07677,0.61503 0.63588,1.05849 0.54578,1.10764 0.32411,1.78858 1.1119,1.43796 0.11366,1.85867 -1.02822,1.55253 0.96653,1.60309 1.73159,0.71107 0.26387,1.75762 0.25194,1.75936 1.00279,1.31769 1.37831,0.91769 1.00889,1.42841 1.7051,0.3884 1.10578,1.31383 1.6693,0.40284 1.49767,0.75165 1.00823,1.33845 0.48795,1.05003 0.87947,0.75312 0.60459,0.95926 0.72393,0.87273 -0.16081,1.20336 0.66919,1.01297 0.54843,1.00001 0.38382,1.07399 1.0222,0.71849 0.7657,0.98733 1.23053,0.11567 1.2348,0.0533 0.32506,1.18519 0.32732,1.18458 1.25325,0.37392 0.71965,1.09204 1.69872,1.3726 0.92526,1.97828 2.17385,-0.11871 2.02903,0.78915 0.61193,2.00011 -7.5e-4,2.09163 0.88664,1.98512 1.8814,1.08958 1.75508,0.88205 1.42031,1.35684 1.68374,0.96946 1.71272,0.91727 1.93854,0.12059 1.93615,0.15419 1.83222,0.80968 1.99698,-0.15703 1.92949,0.65477 2.03735,0.0291 1.32595,1.51525 1.40968,1.43769 1.87495,0.84452 0.93087,1.83361 1.25457,1.55336 0.39481,1.95728 1.65077,0.9546 1.62475,0.99824 1.74991,0.79986 1.8994,0.30701 1.64952,1.11388 1.83283,0.77613 0.27103,2.08733 1.53661,1.43848 1.9558,-0.90668 2.15397,0.0874 1.82004,1.03817 1.82305,1.03288 1.67628,1.35239 2.13689,0.26945 1.95627,-0.71468 2.06056,-0.30301 0.94359,2.01369 -0.20148,2.21465 1.50769,1.52973 1.39514,1.63304 1.93107,0.76571 1.67517,1.22847 1.63733,1.31924 2.02265,0.57452 1.70664,0.30897 1.52045,-0.83445 1.70637,-0.40751 1.53265,0.85368 0.60245,1.64781 1.54129,0.83826 1.45847,0.75501 1.40369,0.85255 1.64382,0.16373 1.45867,0.77542 1.73131,-0.0881 1.23692,-1.21458 1.49852,-0.40046 1.54813,0.096 1.49775,0.34776 1.53626,0.064 1.39616,-0.34309 1.33037,0.54507 1.37905,0.14966 1.24942,0.60262 1.35914,-0.23067 1.37791,-0.0427 1.3104,0.45745 1.38492,0.0916 1.49517,0.19774 1.23258,-0.86912 0.87837,-1.13984 1.27919,-0.65911 1.4412,0.0867 1.20725,-0.79189 1.32658,-0.38258 1.37973,-0.0504 1.49928,-0.72804 1.15982,-1.19696 1.5338,-0.58474 1.54703,-0.54881 1.63256,-0.14237 1.63447,0.11857 1.5262,0.72445 1.68498,-0.12245 0.86575,-1.45218 1.28998,-1.09285 1.72343,0.13826 1.55371,-0.75849 1.54967,-0.66545 1.20755,-1.17734 1.66555,-0.0766 1.64508,0.27132 1.426,-0.67702 1.16773,-1.0622 1.15059,-1.16768 0.25966,-1.61863 0.63706,-1.48834 1.44444,-0.73118 0.41448,-1.5136 1.08422,-1.13457 1.36402,-0.75541 1.53494,-0.27412 1.52066,-0.27587 1.43859,-0.56481 1.11251,-1.09858 0.92502,-1.26052 1.29959,-0.8654 1.39318,-0.70493 -0.59796,-0.49766 -0.3092,-0.71387 -0.0175,-0.75714 -0.0773,-0.7534 -0.41929,-0.64566 -0.72755,-0.25172 -0.42948,-0.59243 -0.53834,-0.49562 -0.71275,-0.2503 -0.73495,-0.17469 -0.64717,-0.41196 -0.45723,-0.61603 -0.66412,0.42778 -0.78379,0.0986 -0.73953,-0.21603 -0.7468,-0.18939 -1.60961,0.24954 -1.6244,-0.12026 -1.26284,-1.01263 -1.21646,-1.0679 -1.53909,0.4115 -1.4929,-0.55622 -1.47507,-0.35847 -1.45987,-0.41609 -0.55706,-1.52022 -1.24504,-1.03499 -1.3511,-0.7884 -1.40189,-0.69408 -0.93875,-1.38894 0.13227,-1.6712 -0.88973,-1.36177 -1.40846,-0.81381 -1.62044,1.04069 -1.44255,1.27589 -1.4747,1.40302 -2.0283,0.17096 -0.72932,1.94271 -1.84307,0.95344 -1.77255,0.795 -1.6282,1.05968 -1.82804,-0.57606 -1.88499,-0.34699 -1.9234,0.0145 -1.88479,-0.38374 -1.87838,0.56628 -1.96145,0.0414 L 621.91317,696.79 620,696.43531 l -0.68268,-3.24419 -1.97776,-2.66069 1.09695,-3.05158 0.77043,-3.1499 1.75112,-2.56307 0.84932,-2.9857 1.71857,-2.56944 2.33313,-2.02783 0.43307,-3.05885 1.51121,-2.6945 0.73582,-2.95032 1.04121,-2.85686 2.76315,-1.31178 2.596,-1.61757 2.06406,-2.28065 2.54821,-1.7229 1.79806,3.39581 -0.18446,3.83804 1.05544,3.73409 2.98491,2.47944 3.02999,2.15296 2.04282,3.10532 3.34777,1.67785 2.30519,2.95108 3.64475,-0.30211 3.6273,-0.46717 3.46964,1.41248 3.74102,-0.19556 3.41642,1.21411 3.3969,1.26769 2.79629,2.5899 3.78395,0.45659 -0.10234,-2.70775 -1.14465,-2.45604 0.47184,-2.62899 1.01256,-2.47162 1.35067,-2.27178 2.16006,-1.52298 1.84771,-1.92813 0.6764,-2.58344 -0.009,-2.71431 1.35599,-2.35135 -0.98682,-2.50691 0.24931,-2.68257 0.25258,-2.80874 2.11144,-1.86939 1.94739,-1.75581 2.05445,-1.62925 -0.2245,-2.24636 0.60578,-2.17476 1.58432,-1.63637 0.70225,-2.16669 1.859,-1.12734 1.98925,-0.87733 1.99245,-0.96567 1.4557,-1.66832 -0.65796,-2.00006 -0.0907,-2.10354 0.42069,-2.04298 0.36773,-2.05318 1.10447,-1.80117 0.89574,-1.91356 -0.52649,-2.11911 0.60082,-2.09925 2.00669,0.46339 2.03435,0.32089 2.04101,0.60846 1.46906,1.542 1.80831,-0.9451 1.98114,-0.48819 1.79538,-0.95513 1.93511,-0.6253 1.89785,-0.42299 1.79284,-0.75265 2.03778,0.36527 1.77039,-1.07318 1.78103,-0.96536 1.92496,-0.63127 0.81444,-1.87956 1.40524,-1.49041 2.16812,1.46685 1.89514,1.80577 0.76588,2.50397 1.18644,2.33427 2.64287,-0.36949 2.66549,0.12833 2.22116,1.4581 2.19852,1.49202 2.49564,0.56801 2.25709,-1.20682 2.39884,-0.73088 2.39662,0.73814 2.45051,0.34588 2.47424,-0.053 1.98515,-1.58394 2.49244,-0.4873 2.2069,-0.34314 2.22446,0.19984 2.21252,-0.30303 2.07539,-0.82453 1.72452,-1.52585 2.23932,-0.53627 2.08369,-1.19272 2.33764,0.54751 1.73398,-1.50238 2.02703,-1.07471 0.52757,-2.31756 1.70152,-1.65959 0.31866,-2.28147 0.47673,-2.25375 0.93396,-2.23343 2.06886,-1.25712 -0.31722,-1.7491 0.71723,-1.62652 0.18872,-1.7037 -0.25603,-1.69488 1.17178,-1.43343 1.81071,-0.38613 0.86786,-1.51634 0.92015,-1.48518 -1.69868,-0.89383 -0.72322,-1.77803 -0.11,-1.79975 -0.0906,-1.80083 0.53501,-1.62431 0.32867,-1.67826 0.52849,-1.63748 0.92266,-1.45236 0.30825,-1.33427 -0.4482,-1.29398 -0.97057,-0.90042 -0.7518,-1.08974 -0.2484,-1.25141 -0.63973,-1.10383 -0.47706,-1.22974 0.31083,-1.28188 0.36047,-1.27555 0.5241,-1.21749 1.23082,-0.7112 0.41538,-1.35947 -0.40126,-1.26743 -0.42705,-1.25898 0.12055,-1.32419 0.0647,-1.32808 1.58769,0.54913 1.58944,-0.54402 0.98615,-1.30332 1.47273,-0.70867 0.77501,-1.46429 1.51774,-0.66426 1.6285,0.29376 1.46302,-0.77324 0.32353,-1.56792 0.004,-1.60095 0.85144,-1.37805 0.30273,-1.59132 1.05168,-1.1963 1.17321,-1.07737 1.49116,-0.61155 1.21875,-1.05461 1.00606,-1.18035 1.53283,-0.23622 1.49625,0.25031 1.38865,-0.61082 0.29086,-1.56548 1.18558,-1.06291 1.23615,-0.94444 1.53756,-0.2366 1.53202,0.0954 1.52523,-0.17287 0.78263,1.42425 1.51072,0.59894 1.26163,-0.91447 1.54015,-0.23647 1.41569,0.54578 1.47112,0.37126 0.63089,1.9059 1.06956,1.69896 1.25258,1.63851 1.90183,0.79793 1.77862,0.77156 1.74098,0.85312 1.56334,1.19088 1.86614,0.61626 1.92468,-0.12008 1.92826,0.0256 1.88011,-0.42805 1.90543,-0.29564 1.98429,-0.35159 2.0045,0.20741 2.09188,0.35485 1.38282,1.60925 1.14262,0.71672 0.80846,1.07964 0.94639,1.02309 1.36625,0.27511 0.74987,1.25974 1.36529,0.53405 0.44621,1.31955 0.18909,1.38006 0.93165,0.90524 1.05473,0.75827 0.77087,1.08593 1.17771,0.6217 1.09714,0.73582 0.93351,0.93473 1.09063,0.87983 0.25839,1.37725 0.96906,1.93724 2.03675,0.7373 0.14026,2.01015 0.37,1.98079 1.68816,1.01856 1.12247,1.62091 1.91071,0.36829 1.74116,0.86878 0.82634,1.75429 1.31548,1.42474 1.19088,1.55355 1.71083,0.95118 1.8223,0.54027 1.84892,0.44066 1.83219,0.51051 1.87111,0.34131 0.94933,1.01676 1.25322,0.60372 1.19143,0.72798 0.80431,1.1413 1.40772,0.36499 1.09792,0.95365 1.42442,0.12453 1.40298,-0.27584 -0.0376,1.49031 -0.65826,1.33758 0.6835,1.31302 0.1746,1.46994 0.13109,1.54656 1.1583,1.03314 0.8124,1.32065 1.49577,0.40842 1.43202,0.31508 1.1012,0.96815 1.14704,0.89979 0.63143,1.31401 1.52284,-0.077 1.17427,0.97265 1.11632,0.88684 0.95735,1.05647 0.81923,1.33665 0.0468,1.56702 0.86434,1.35338 1.52094,0.51527 1.55317,-0.0925 1.20241,0.98747 1.5361,0.18658 1.03369,1.15149 1.72942,-0.49662 1.68638,0.62742 1.18422,1.23494 1.2932,1.12031 1.18572,1.26163 1.72565,0.14059 1.59124,0.28111 1.59838,0.23716 0.85662,1.54819 1.24164,1.26056 -0.38482,1.726 0.079,1.76661 1.71147,0.49023 1.27337,1.24416 0.083,1.84041 1.2681,1.33637 -0.35457,3.198 0.60311,3.16056 1.07102,3.05093 2.07293,2.48158 -1.2831,2.85747 -0.71386,3.0499 -1.34504,3.03691 0.93986,3.18569 -1.00174,3.00738 0.14454,3.16653 1.31459,2.83909 0.79705,3.02545 0.78826,3.04007 -0.34908,3.12115 -1.58395,2.72077 -0.42897,3.11889 2.1841,-1.72096 0.89224,-2.6336 2.09145,-1.82225 0.80337,-2.65504 1.95644,-2.13759 2.84491,-0.55087 2.75611,0.53486 2.74647,-0.58238 2.63767,-0.35365 2.05132,-1.69542 2.55311,0.74846 2.56391,-0.71054 2.08355,-1.46808 2.43484,-0.75363 2.41503,-0.72319 L 990,660 z"
           transform="translate(0,287.36218)"
           id="landmass-borders"
           style="fill:#dbe0d2;fill-opacity:1;stroke:#000000;stroke-width:1px;stroke-linecap:butt;stroke-linejoin:miter;stroke-opacity:1">
          <desc
             id="desc3339">provides fill borders for the coast</desc>
        </path>
      </g>
    </g>
  </g>
  <g
     style="opacity:0.43621399"
     inkscape:groupmode="layer"
     id="layer5"
     inkscape:label="Terrain scratch">
    <path
       inkscape:connector-curvature="0"
       id="path4033"
       d="m 550,481 c -0.0926,-0.53544 -0.10273,-1.11072 -0.53014,-1.50787 -0.2229,-0.52729 -0.79742,-0.4708 -1.23264,-0.64813 -0.35063,-0.25992 -0.62878,-0.61053 -1.06194,-0.74764 -0.43549,-0.12609 -0.92798,-0.13244 -1.36603,-0.0102 -0.3968,0.24735 -0.59183,0.72315 -0.94283,1.03177 -0.2583,0.44042 -0.19682,1.0324 -0.52865,1.4521 -0.33202,0.43549 -0.72073,0.8297 -0.97089,1.26108 -0.0882,0.56727 0.1271,1.19889 -0.20488,1.71088 -0.0765,0.27797 -0.35949,0.59816 -0.007,0.6671 0.16217,0.49931 0.50853,0.92612 0.84463,1.31942 0.34917,0.44466 0.92153,0.54336 1.25785,0.97318 0.43418,0.39997 1.10097,0.24354 1.57436,0.62354 0.5176,0.2917 1.1439,0.0982 1.71048,0.14975 0.56104,0.12607 0.72428,-0.59544 1.22265,-0.6289 0.26303,-0.13976 0.56183,-0.24948 0.57368,-0.44489 0.4037,-0.26504 0.90699,-0.42639 0.81712,-1.02836 0.16453,-0.53656 0.63625,-0.95614 0.69509,-1.54094 0.26829,-0.31971 -0.15654,-0.61658 -0.14547,-0.88094 -0.18546,-0.28825 -0.13664,-0.81938 -0.59132,-0.81187 -0.26786,-0.14538 -0.15393,-0.50919 -0.5365,-0.50697 C 550.38977,481.31519 550.18461,481.15408 550,481 z"
       style="fill:none;stroke:#000000;stroke-width:1px;stroke-linecap:butt;stroke-linejoin:miter;stroke-opacity:1" />
    <path
       sodipodi:nodetypes="cccccccccccccccccccccccccccccccccc"
       inkscape:connector-curvature="0"
       id="path4037"
       d="m 545,456 c 0.61727,-1.85562 2.5285,-5.23524 2.92145,-6.01023 -1.23172,3.38778 2.05035,6.32497 1.56158,9.73755 -0.86654,2.58573 0.73928,6.17576 3.5684,3.63743 2.64755,-0.69143 4.18272,-4.55453 6.94857,-4.36475 10,2 -1.22931,4.82428 -2.37359,6.71551 -0.6623,2.05888 -3.06258,6.11169 0.68765,6.42183 2.32287,0.82668 5.51986,2.73901 7.46875,0.24079 1.99397,-2.01157 2.9218,-5.79948 6.21719,-6.37813 1,-2 0.30685,5.73475 -2.42947,5.63263 -3.43773,0.36869 -2.69411,5.12432 -5.9263,5.28235 -2.00155,-0.25418 -6.44268,0.95573 -3.64613,3.29778 2.98485,2.36498 7.31747,3.29948 8.94187,7.10314 0.30399,1.02861 2.42204,4.41025 0.50415,2.38049 -1.80322,-1.20127 -6.52357,-0.82138 -4.363,2.19641 0.16951,2.43289 1.84083,5.66885 0.47008,7.69439 -1.55738,-2.16184 -3.45026,-4.2063 -6.49478,-4.22513 C 552,491 562,509 555,502 c -3,-9 -4.93101,-3.47851 -5.9571,-5.8271 -1.05544,-2.70967 -4.87148,-4.03361 -6.1867,-0.75981 -1.76011,2.00601 -3.126,5.28701 -6.17053,5.40612 -2.72053,-0.1371 -5.44562,-0.0567 -8.17082,-0.0767 3.15156,-0.15147 3.69184,-3.97545 5.25551,-6.06726 1.46265,-2.54457 3.7792,-4.40994 5.8176,-6.46628 -1.67386,-2.12101 -4.62415,1.90023 -6.87869,0.28087 -2.6543,-1.12856 -5.923,-0.62718 -8.70927,-1.48984 -1.17352,-0.4985 -4,-8 -0.39735,-2.94213 2.62149,1.50506 5.9816,0.69812 8.15412,-1.22955 1.70861,-1.36801 5.73387,-1.90587 5.77084,-4.14908 -1.93729,-2.4437 -4.73607,-4.9525 -3.96619,-8.41419 0.29741,-1.68241 -2.51199,-4.25443 -1.86617,-4.66617 3.15464,1.14599 5.2676,4.31028 8.6597,4.93512 3.00969,-0.46489 2.95679,-4.16051 2.8533,-6.53171 C 543.3808,461.25654 544.2857,458.63577 545,456 z"
       style="fill:none;stroke:#000000;stroke-width:1px;stroke-linecap:butt;stroke-linejoin:miter;stroke-opacity:1" />
    <path
       style="color:#000000;fill:none;stroke:#000000;stroke-width:0.5;stroke-linecap:butt;stroke-linejoin:miter;stroke-miterlimit:4;stroke-opacity:1;stroke-dasharray:none;stroke-dashoffset:0;marker:none;visibility:visible;display:inline;overflow:visible;enable-background:accumulate"
       d="m 655,700 c 10,2.16584 17.27554,7.43605 10,10 -15.23919,0 -18.79531,2.93242 -20,5 -3.11466,0.96209 -4.71014,-6.3821 -8.15225,-6.40244 -2.12413,0.77188 -3.81618,2.81387 -5.59005,4.15296 -1.52169,2.17901 0.60129,5.46159 -1.2577,7.24948 -2.62144,1.07569 -7.32583,2.67797 -10,2.84653 -2.69828,0.15217 -6.20867,-2.35639 -8.55344,-3.8097 C 592.83658,709.62429 583.4329,724.45828 575,705 c -1.71696,-3.58799 4.89842,-6.11832 5,-10 21.01922,2.97058 3.88095,1.40875 20,15 1.71073,1.99294 12.90527,-3.87874 13.51488,-1.80693 1.60879,2.66462 5.15078,2.82858 7.99599,2.42266 2.87138,-0.52848 6.65861,-0.47537 8.5023,-0.97022 2.52667,0.16101 6.78604,-5.00863 9.98683,-4.64551 3.65031,-0.006 1.37095,0.008 5,0 1.03764,-0.49171 9.05986,-4.35728 10,-5 z"
       id="path4361"
       inkscape:connector-curvature="0"
       sodipodi:nodetypes="ccccccccccccccccc" />
  </g>
  <g
     inkscape:groupmode="layer"
     id="layer4"
     inkscape:label="Water">
    <g
       id="g11005"
       style="fill:#b3cccd;fill-opacity:1;stroke:#b3cccd;stroke-opacity:1">
      <path
         style="fill:#b3cccd;fill-opacity:1;stroke:#b3cccd;stroke-width:0.25;stroke-linecap:butt;stroke-linejoin:miter;stroke-miterlimit:4;stroke-opacity:1;stroke-dasharray:none"
         inkscape:path-effect="#path-effect10777"
         inkscape:original-d="m 565,500 c 0.30358,2.73551 3.4061,3.35515 5,5 0.74233,1.63617 1.1832,3.19629 0.78148,5.02586 -0.31564,2.34055 1.35938,4.25972 3.04986,5.5933 1.57809,1.36907 3.84669,1.10508 5.08096,2.81177 1.0446,1.96299 3.30494,2.1025 4.6677,3.86574 0.43069,1.84782 2.71155,2.99862 1.76896,5.05416 0.55386,2.39136 -0.5834,4.59258 -1.95691,6.52963 -0.99607,1.71397 -0.006,4.69816 2.36439,4.11717 1.60557,0.88702 3.62974,2.8498 5.23727,1.16711 2.06225,-0.2216 2.33641,-3.13106 4.61624,-1.58441 1.82603,0.48488 3.55189,0.41568 5.31868,-0.0964 2.06718,0.35086 2.72013,-2.21014 4.75523,-2.42484 1.86636,-0.305 3.3625,-1.96269 5.34356,-1.48834 0.72656,-1.62894 2.50951,-1.98857 2.93411,-3.78821 1.31461,-1.62103 3.41861,-0.22996 5.10919,-1.11797 1.34006,-1.26671 2.73557,-1.09093 4.53772,-0.74603 1.44861,0.14891 3.22851,-0.22224 4.28207,1.1317 1.18974,1.18256 3.18293,1.3021 4.62866,1.49546 1.36,1.40408 2.69753,2.8866 2.91426,4.86417 -0.53516,2.45012 1.38062,4.47934 1.78514,6.78166 1.58182,1.37493 1.99556,2.82007 1.80183,4.83696 0.33859,1.74014 0.94799,3.25796 0.48562,5.08329 0.21637,1.76699 -1.16851,3.78044 -2.25611,5.26418 -0.40454,2.15679 -1.55605,3.63796 -3.43752,4.78214 -1.98844,1.14235 -1.50111,4.22436 -4.08731,3.63355 -1.59157,1.08824 -3.4134,1.1721 -4.2225,3.1401 -0.5249,2.10054 -3.70741,1.46369 -4.06434,3.14998 0.0889,2.16293 -2.04673,3.29675 -2.93321,5.07932 -0.58444,3.10494 -5.51858,3.25116 -5.49816,6.58566 0.4263,1.49239 0.60628,3.34392 0.37081,4.72829 0.24746,1.67871 0.23581,2.96841 0.40748,4.63893 1.50656,1.49706 0.76483,2.81517 0.003,4.44963 0.0618,2.53533 -1.71248,5.04123 -0.271,7.5703 0.16286,1.9355 2.65319,1.78338 3.55709,3.40052 0.4991,1.79763 2.9552,0.90887 4.03346,2.21833 1.5243,0.9678 3.43674,-0.10713 4.57209,1.45712 1.82048,0.49303 4.24609,0.67006 3.6483,3.1641 0.13407,2.83711 -0.57439,5.57089 -0.4374,8.36345 0.73561,2.57575 -1.52512,5.1268 -0.59682,7.75754 0.11569,2.14796 2.65964,3.009 4.01938,4.3043 1.99933,0.18761 2.86949,2.51101 3.44339,4.29355 0.56077,2.0379 -0.31006,4.08515 -0.48292,5.97397 -0.37227,1.9081 -0.23518,4.21545 1.24939,5.54249 C 637.09385,653.33242 637,656 639,657"
         id="path9481"
         d="m 637.36273,660.27454 c -2.118,-1.35099 -3.25873,-3.07444 -3.56371,-4.68542 -0.21295,-1.18052 -0.101,-1.91691 -0.0928,-2.13196 -2.40481,-2.59302 -2.67555,-5.62436 -1.71342,-7.85937 0,0 10e-6,-1e-5 10e-6,-1e-5 0.22106,-2.63457 1.1464,-4.14464 0.74883,-4.6053 -0.28107,-0.87871 -0.46242,-1.57166 -0.73732,-1.97239 -0.52993,-0.33811 -0.84916,-0.71281 -0.85866,-0.65717 -0.60188,-0.51986 -1.7443,-1.11274 -3.09856,-2.12177 -1.18236,-0.6788 -2.19287,-2.12043 -2.48002,-4.20337 -0.55517,-2.19137 -0.19293,-3.96628 0.3547,-5.16247 0.26751,-1.39572 0.67381,-2.33064 0.43534,-2.7197 -0.0575,-3.54186 0.72145,-6.48715 0.65746,-8.99982 0.004,-0.32609 0.11043,-0.46157 0.15655,-0.29944 0.1721,0.19884 0.18081,0.2541 0.14579,0.17365 -0.49502,-0.4079 -1.50802,-0.6322 -2.80871,-1.12133 0.0716,-0.13675 -0.43836,-0.25717 -1.09333,-0.53543 0,-10e-6 -10e-6,-10e-6 -10e-6,-10e-6 -0.84617,-0.0625 -2.15185,-0.27524 -3.64656,-1.10513 0.25816,-0.0952 -0.34661,-0.0928 -1.29155,-0.50381 -10e-6,0 -10e-6,0 -2e-5,0 -0.42415,-0.0709 -1.01724,-0.25352 -1.71213,-0.64056 0,-10e-6 -1e-5,-10e-6 -1e-5,-10e-6 -0.75494,-0.44176 -1.25037,-1.09818 -1.44522,-1.86749 0.15686,-0.0879 -0.41312,-0.20235 -1.17062,-0.68493 -0.99585,-0.32115 -1.95903,-1.31293 -2.27884,-2.92611 -0.80219,-1.60288 -0.78095,-3.25486 -0.35736,-4.6235 0.32957,-1.52376 0.80626,-2.74293 0.80166,-3.76596 0.39497,-0.92214 0.7979,-1.6047 0.85765,-2.1562 0,0 0,0 0,0 0.0581,-0.36111 -0.2268,-0.91601 -0.58373,-1.41405 -0.19695,-1.86097 -0.23946,-3.60487 -0.47111,-5.22442 0.27364,-1.44348 0.12471,-3.01906 -0.22928,-4.55415 0,0 0,0 0,-1e-5 0.0206,-1.09034 0.41736,-2.09862 1.07855,-2.87325 0,0 0,0 0,0 0.64828,-0.67965 1.36368,-1.13763 2.01223,-1.519 0,-10e-6 1e-5,-10e-6 1e-5,-10e-6 0.6685,-0.41143 1.29345,-0.7579 1.77352,-1.18187 0.44658,-0.42972 0.81519,-0.92952 0.91957,-1.45137 0.60034,-1.10658 1.40964,-1.88356 2.04456,-2.62414 0.565,-0.72308 1.05383,-1.48703 1.01263,-2.23508 0.18016,-0.66464 0.58989,-1.15516 1.07405,-1.43765 0,0 10e-6,0 10e-6,-10e-6 0.49484,-0.26753 0.97556,-0.40553 1.39311,-0.53196 0.4444,-0.14627 0.84895,-0.27063 1.1555,-0.47657 0.28955,-0.1961 0.52752,-0.49343 0.61636,-0.81993 0.4449,-0.97899 1.23378,-1.70602 2.12282,-2.15489 0.91566,-0.43831 1.82241,-0.71861 2.56409,-1.17973 0,0 0,0 0,0 0.48296,0.084 0.97738,0.1094 1.32138,-0.0981 0,0 0,-10e-6 0,-10e-6 0.29047,-0.15491 0.50614,-0.49324 0.72452,-0.85515 0,0 0,0 0,0 0.48993,-0.88732 0.99274,-1.95439 1.98792,-2.51943 1.71465,-0.98839 3.0768,-2.64602 3.49805,-4.60019 1.20192,-1.56686 2.59302,-3.25723 2.41291,-5.23087 0.47234,-1.69137 -0.056,-3.45947 -0.34026,-5.10073 0.2426,-1.83164 -0.32188,-3.75085 -1.7167,-5.00866 -0.17981,-1.23156 -0.71751,-2.31515 -1.11157,-3.34432 -0.39487,-1.09547 -0.68148,-2.23467 -0.40954,-3.22295 0,0 0,-10e-6 0,-10e-6 -0.28547,-2.21268 -1.74173,-4.03376 -3.17874,-5.53691 -1.71471,-0.33939 -3.44963,-0.45911 -4.27898,-1.45019 -0.66848,-0.83211 -1.61512,-1.27784 -2.54587,-1.38037 -0.87211,-0.12482 -1.64107,-0.0863 -2.25981,-0.17459 -1.62325,-0.46467 -3.66524,-0.51772 -5.36017,0.82416 0,0 0,0 0,0 -0.32911,0.23795 -1.0423,0.0237 -1.97568,-0.0195 -1.12494,-0.0496 -2.48415,0.33996 -3.61698,1.51099 -0.0868,0.45537 -0.56738,0.92514 -1.11557,1.48204 -0.37541,0.35761 -0.868,0.91071 -1.15878,1.86721 -1.15694,-0.4185 -2.17029,-0.2744 -2.86141,0.0606 0,10e-6 -10e-6,10e-6 -10e-6,10e-6 -0.95748,0.39245 -1.66415,0.816 -2.2012,0.83028 0,0 -10e-6,10e-6 -2e-5,10e-6 -1.60172,0.29096 -2.67366,1.1029 -3.30179,1.77948 -0.71822,0.37324 -1.22545,0.75079 -1.33647,0.52151 -1.478,0.41199 -3.04176,0.46157 -4.43127,0.0946 -0.42985,-0.44389 -1.27444,-0.75124 -2.48407,-0.65376 -1.00826,0.23553 -1.69216,0.63666 -2.05034,1.0373 -1.08541,0.70854 -1.60181,1.36847 -1.73415,1.17756 0,0 0,0 0,0 0.0209,0.13661 -0.49133,0.10992 -0.90019,0.14813 0,-10e-6 0,-10e-6 -10e-6,-10e-6 -0.82046,-0.27276 -1.79994,-0.9515 -3.1976,-1.63756 -0.0627,0.0331 -0.4971,-0.16474 -0.6116,-0.11862 -0.0857,-0.22525 -0.0937,-0.59246 0.003,-0.61601 0,0 0,0 0,0 1.65458,-1.74326 2.94183,-4.38717 2.38998,-7.58635 0.67194,-1.75585 0.3638,-3.33421 -0.57648,-4.32889 -0.68568,-1.26528 -1.29578,-1.91435 -1.20671,-2.13968 0,-1e-5 -1e-5,-1e-5 -1e-5,-2e-5 -1.21787,-1.53602 -2.49172,-2.50713 -3.47004,-3.17377 -10e-6,-10e-6 -10e-6,-10e-6 -10e-6,-10e-6 -0.70075,-0.56546 -1.21542,-0.8779 -1.15046,-1.08537 -10e-6,-10e-6 -10e-6,-10e-6 -2e-5,-2e-5 -1.30189,-1.58773 -2.7382,-2.4641 -3.91593,-2.8406 -0.99398,-0.45114 -1.65344,-0.6067 -1.67593,-0.81479 0,0 0,0 -1e-5,0 -1.14073,-1.26358 -2.30677,-2.33199 -1.78334,-2.61651 0,0 0,0 0,0 0.4023,-2.82229 -0.17515,-5.43192 -1.22221,-7.51659 -1.59375,-1.60365 -3.00692,-2.4748 -3.76927,-3.09882 -0.39288,-0.48159 -0.73146,-0.65921 -0.40471,-0.38982 -0.31584,-0.2706 0.0298,-0.10756 0.42348,0.36277 0.76657,0.61412 2.18664,1.4783 3.80405,3.0894 1.06682,2.08527 1.66567,4.70878 1.27922,7.57262 0,0 0,0 0,0 -0.50933,0.22313 0.66043,1.22502 1.78265,2.46419 -0.0111,0.17551 0.63016,0.31017 1.6313,0.75937 1.19839,0.37044 2.67435,1.26655 4.04144,2.90985 0,10e-6 10e-6,10e-6 10e-6,10e-6 -0.0966,0.14921 0.39497,0.42501 1.08614,0.98564 0,10e-6 0,10e-6 10e-6,10e-6 0.99165,0.66955 2.30328,1.67142 3.59114,3.27487 10e-6,0 10e-6,10e-6 10e-6,10e-6 -0.10987,0.15031 0.50095,0.77741 1.21543,2.09003 0.99916,1.01368 1.3291,2.65491 0.63179,4.52775 0.58249,3.31761 -0.69404,6.03484 -2.3704,7.76771 0,0 0,0 0,0 -0.0183,-0.10747 0.0106,0.12814 0.0468,0.22306 0.0713,-0.22251 0.40077,-0.10912 0.28562,-0.11515 1.50106,0.71131 2.5287,1.38442 3.3308,1.61465 0,0 10e-6,0 10e-6,0 0.31255,-0.14263 0.69427,-0.11698 0.50404,-0.13368 0,10e-6 0,10e-6 0,10e-6 -0.0587,0.24811 0.40147,-0.39782 1.58649,-1.14235 0.37294,-0.44159 1.14649,-0.89017 2.32376,-1.17999 1.40342,-0.11143 2.35267,0.20753 2.79099,0.69057 1.30331,0.31266 2.78041,0.23114 4.17333,-0.18361 -0.15127,0.23953 0.22086,-0.0977 0.94796,-0.39709 0.59305,-0.70467 1.77104,-1.57668 3.63733,-1.96351 1e-5,0 1e-5,0 1e-5,0 0.3762,0.0219 1.01398,-0.39054 2.00615,-0.80023 0,0 10e-6,0 10e-6,0 0.613,-0.32858 1.63745,-0.43077 2.9051,0.0691 0.26514,-1.07141 0.68,-1.64721 0.92075,-1.92631 0.50513,-0.58329 0.92827,-0.98204 0.94192,-1.26008 1.43542,-1.45072 3.0234,-1.99347 4.29518,-1.9575 0.94571,0.0242 1.50289,0.27924 1.49132,0.14759 2.02626,-1.54001 4.26858,-1.5569 5.93657,-1.01123 0.5078,0.0723 1.26926,0.0258 2.24517,0.15101 1.08383,0.0828 2.21237,0.61554 3.09337,1.64914 0.54158,0.78222 2.17854,0.82894 4.01642,1.25349 1.58849,1.57622 3.23198,3.66226 3.74514,6.3635 0,0 0,0 0,1e-5 -0.23953,0.71951 0.0377,1.70805 0.3772,2.7835 0.33194,0.86157 0.84324,1.91016 1.03602,3.25251 10e-6,0 10e-6,0 10e-6,1e-5 1.60896,1.38629 2.25418,3.44807 1.93879,5.43744 0.31727,1.41695 0.85888,3.21439 0.37763,5.22256 0.16288,2.43752 -1.24513,4.27333 -2.46337,5.61966 -0.47553,2.2553 -1.97683,4.12019 -3.92682,5.20705 -0.58373,0.20069 -0.91885,1.10712 -1.50204,2.05188 0,10e-6 0,10e-6 0,2e-5 -0.21244,0.43248 -0.56886,0.92925 -1.15089,1.3329 0,0 -10e-6,10e-6 -2e-5,10e-6 -0.63455,0.38561 -1.28671,0.3906 -1.79028,0.18467 -0.76536,0.5483 -1.54214,0.82973 -2.16549,1.17817 -0.65327,0.32288 -1.22492,0.80413 -1.47239,1.41109 -0.17867,0.64081 -0.58212,1.17043 -1.11496,1.51434 -0.50648,0.32823 -1.0198,0.51275 -1.47914,0.65522 -0.4477,0.1513 -0.84539,0.25543 -1.14097,0.42876 -10e-6,0 -10e-6,10e-6 -10e-6,10e-6 -0.20728,0.10288 -0.39213,0.2375 -0.40069,0.36585 -0.005,1.21135 -0.58484,2.2391 -1.28895,3.01448 -0.67147,0.7864 -1.3971,1.42032 -1.7866,2.18405 -0.18227,0.84363 -0.67124,1.55176 -1.28238,2.07149 -0.62619,0.55202 -1.31489,0.95665 -1.96118,1.35331 0,10e-6 0,10e-6 -10e-6,10e-6 -0.63024,0.395 -1.23922,0.7705 -1.68939,1.26763 -10e-6,0 -10e-6,0 -10e-6,10e-6 -0.43091,0.44438 -0.70406,1.05069 -0.71189,1.66468 0,0 0,0 0,1e-5 0.42026,1.53641 0.58817,3.18688 0.28208,4.78505 0.1857,1.51667 0.1685,3.04046 0.29098,4.55493 0.58886,0.58852 0.95916,1.42728 0.83382,2.27345 0,10e-6 0,10e-6 0,2e-5 -0.12576,0.83054 -0.54354,1.55689 -0.90007,2.2779 0.007,1.29653 -0.44395,2.52363 -0.72316,3.77264 -0.28049,1.26529 -0.31418,2.64287 0.31013,3.78979 0.0613,0.8477 0.76437,1.48813 1.49863,1.88852 0.76536,0.43282 1.59775,0.83222 1.96823,1.55335 0.10581,0.41118 0.3656,0.7812 0.73567,1.00961 0,10e-6 10e-6,10e-6 10e-6,10e-6 0.36381,0.22303 0.77131,0.32963 1.158,0.41397 0,10e-6 0,10e-6 10e-6,10e-6 0.81748,0.20232 1.69234,0.33302 2.11668,0.91605 0.79028,0.50351 1.73285,0.55072 2.57036,0.61484 0,0 0,0 10e-6,0 0.78866,0.0915 1.5918,0.33809 1.97858,0.92532 0.97116,0.29708 1.95111,0.45039 2.72209,0.91351 0.30111,0.18291 0.56356,0.41327 0.66773,0.68642 0.15689,0.34875 0.10425,0.80725 0.002,1.26437 0,0 0,0 0,1e-5 0.0805,2.73532 -0.67755,5.52987 -0.59406,8.50223 0.31504,1.05885 -0.0895,2.28706 -0.434,3.57875 -0.41827,1.2518 -0.76216,2.72141 -0.30566,4.22736 0.10541,1.29589 0.88118,2.32014 1.77383,2.96628 0,0 10e-6,0 10e-6,1e-5 0.95435,0.74994 1.93986,1.28092 2.63778,1.94405 0.66405,0.0551 1.30778,0.64421 1.81986,1.30416 0.45467,0.71077 0.73123,1.58773 1.01966,2.5195 0.47148,1.48388 -0.41302,3.32212 -0.62892,5.53537 -0.59254,2.03695 -0.42912,4.57067 1.35634,6.34519 0.19717,0.70778 0.20916,1.63154 0.46152,2.68273 0.28802,1.21496 1.04598,2.46385 2.40211,3.25908"
         inkscape:connector-curvature="0"
         sodipodi:nodetypes="ccccccccccccccccccccccccccccccccccccccccccccc" />
      <path
         style="fill:#b3cccd;stroke:#b3cccd;stroke-width:0.25000000000000000;stroke-linecap:butt;stroke-linejoin:miter;stroke-opacity:1;stroke-miterlimit:4;stroke-dasharray:none;fill-opacity:1"
         d="m 585.16546,534.8018 c 0.0624,0.032 0.16642,0.12595 0.24806,0.30982 -0.021,0.26643 -0.13142,0.40609 -0.27637,0.40351 -0.28633,0.0255 -0.51842,-0.053 -0.69485,-0.1106 -0.27481,-0.0755 -0.54282,-0.16257 -0.80693,-0.25113 -0.18394,-0.0622 -0.35205,-0.12964 -0.51297,-0.1747 -1.36096,-0.83663 -2.91639,-1.74383 -3.53904,-3.31561 0,0 0,0 -10e-6,0 -1.14749,-1.37667 -2.95511,-2.06638 -4.7221,-2.63835 -1.27255,-0.627 -2.80147,-0.49088 -4.27465,-0.50756 0,0 0,0 0,0 -1.95198,-0.18984 -3.89465,0.5845 -5.61619,1.57803 -1.19701,0.75 -2.96126,0.64024 -3.84104,-0.44622 -1.25756,-0.74558 -2.22196,-1.88403 -3.14892,-3.01683 -1.00265,-1.40416 -0.76254,-3.29305 -0.7692,-5.04199 0,0 0,-10e-6 0,-10e-6 -0.10987,-2.47829 0.47833,-4.98231 1.67805,-7.14341 0.44601,-1.18092 1.58339,-2.04439 2.14396,-3.31822 0,0 0,0 0,0 0.12759,-1.54461 0.14106,-3.11363 -0.0615,-4.67202 0,0 0,0 0,0 -0.31542,-0.57997 -0.84925,-0.98041 -1.39118,-1.26259 -0.4679,-0.24818 -1.00426,-0.45654 -1.58763,-0.45207 0.58324,-0.009 1.12331,0.19471 1.59401,0.43942 0.54605,0.2785 1.08651,0.67815 1.4129,1.26598 0,0 0,0 0,0 0.21613,1.56017 0.21667,3.13881 0.10249,4.69811 0,0 0,0 0,0 -0.56296,1.30461 -1.697,2.18925 -2.11485,3.3462 -1.17022,2.15561 -1.72878,4.6435 -1.59935,7.09292 0,0 0,0 0,0 0.0328,1.76399 -0.20093,3.62228 0.76992,4.9096 0.94696,1.12681 1.91225,2.24714 3.14041,2.95571 0.77534,0.97577 2.42883,1.05226 3.51311,0.38636 1.73102,-1.03363 3.72478,-1.84279 5.79017,-1.67718 0,0 0,0 1e-5,0 1.43668,-0.0119 3.00047,-0.15487 4.40474,0.49491 1.79547,0.56347 3.67638,1.29445 4.95819,2.78105 0,0 0,0 0,0 0.5081,1.39983 1.99506,2.22297 3.35088,3.09408 0.17463,0.0441 0.33006,0.10304 0.47418,0.14904 0.26224,0.0851 0.52214,0.16717 0.78232,0.23591 0.21508,0.0476 0.38198,0.12014 0.49581,0.0928 -0.0687,-0.0129 -0.0985,0.0691 -0.14356,0.26305 0.03,0.0211 -0.021,0.007 -0.0899,-0.0716"
         id="path10832"
         inkscape:connector-curvature="0"
         inkscape:path-effect="#path-effect10849"
         inkscape:original-d="m 558,505 c 0.74148,-0.0202 2.26096,0.60959 2.75852,1.52679 0.21115,1.50235 0.20938,3.05346 0.0963,4.55829 -0.51805,1.21615 -1.63396,2.05016 -2.10168,3.29955 -1.19113,2.19179 -1.75743,4.71631 -1.62302,7.20814 0.0177,1.71064 -0.24706,3.58143 0.82419,5.05971 0.94066,1.12956 1.91602,2.25716 3.17968,2.99107 0.92167,1.11877 2.65439,1.14907 3.81256,0.41274 1.70505,-1.00705 3.61834,-1.813 5.64431,-1.63955 1.45465,-0.001 2.96355,-0.16697 4.3217,0.47702 1.76997,0.55516 3.5895,1.21699 4.83368,2.67188 0.59787,1.53778 2.14572,2.37586 3.46857,3.19797 0.23736,0.062 2.61089,0.92586 1.78514,0.23643" />
      <path
         inkscape:connector-curvature="0"
         d="m 625.78003,527.13529 c -0.54567,-0.94863 -0.43107,-2.0446 -0.31192,-3.01544 0.037,-0.39172 0.0509,-0.77696 -0.0964,-1.08318 -0.18033,-0.41708 -0.62186,-0.70991 -1.08253,-0.9458 -0.80352,-0.77548 -1.4253,-1.68075 -2.13846,-2.47188 0,0 0,0 0,0 -0.72468,-0.79451 -1.59686,-1.47904 -2.61024,-1.74357 -1.72085,-1.31439 -3.19964,-2.98337 -5.1859,-3.61827 -0.88257,0.0112 -1.66567,-0.53177 -2.11677,-1.26485 -0.44336,-0.70671 -0.73888,-1.4965 -1.33554,-1.99129 -0.63923,-0.29601 -1.19856,-0.79516 -1.48888,-1.44772 0,0 0,0 0,0 -0.27096,-0.61456 -0.32232,-1.29227 -0.30467,-1.94449 0.0327,-1.39449 0.39616,-2.77913 0.10867,-4.10221 -0.20028,-2.36813 1.54138,-4.3476 2.42702,-6.49743 0.65482,-2.13434 -0.13519,-4.47938 -1.35996,-6.36478 -1.0284,-2.1602 -2.91223,-3.8917 -5.13217,-4.8272 -1.26011,0.31529 -2.58819,0.17534 -3.90366,0.12001 -1.30079,-0.0587 -2.66604,-0.0261 -3.84279,0.57708 -1e-5,0 -1e-5,0 -1e-5,0 -0.75838,0.001 -1.50405,0.2599 -2.11864,0.70093 -0.60249,0.42996 -1.09475,0.98368 -1.57587,1.52572 -0.48224,0.54102 -0.9581,1.0857 -1.52899,1.50032 -0.58052,0.42013 -1.28178,0.67838 -1.99153,0.68807 -1.07485,0.23591 -2.18644,0.37428 -3.26507,0.70768 0,0 0,0 0,0 -1.05139,0.3188 -2.0608,0.89591 -2.71919,1.80465 -1.08519,0.52891 -2.3835,0.43444 -3.6304,0.26435 0,0 0,0 0,0 -1.25646,-0.17187 -2.57825,-0.39488 -3.86727,-0.0564 -1.04362,-0.45601 -2.15084,-0.63684 -3.15795,-0.99583 -0.98525,-0.35108 -1.91154,-0.96255 -2.3174,-1.86917 0.4115,0.90395 1.33957,1.50689 2.32346,1.85147 1.00506,0.35205 2.10848,0.52595 3.1544,0.9777 1.29623,-0.34717 2.62321,-0.13275 3.87231,0.0325 0,0 0,0 0,0 1.24124,0.16358 2.52298,0.25612 3.57135,-0.26543 0.66509,-0.92702 1.68189,-1.51768 2.74018,-1.83998 0,0 0,0 10e-6,0 1.09169,-0.34286 2.21029,-0.48907 3.2811,-0.7299 0.68553,-0.0125 1.36487,-0.26751 1.9273,-0.67632 0.55343,-0.40525 1.01848,-0.9457 1.49882,-1.48941 0.47714,-0.54533 0.97426,-1.10915 1.59275,-1.55775 0.62497,-0.45966 1.38752,-0.73007 2.17062,-0.73374 10e-6,0 10e-6,0 10e-6,0 1.21108,-0.62474 2.59475,-0.66948 3.8899,-0.60899 1.34421,0.0469 2.67789,0.18264 3.91124,-0.13097 2.28894,0.93932 4.24405,2.6936 5.33982,4.90457 1.2671,1.91058 2.07934,4.32432 1.41546,6.58844 -0.89028,2.22469 -2.61741,4.17041 -2.37466,6.34794 0.30237,1.42077 -0.0513,2.83059 -0.0804,4.16089 -0.008,0.62842 0.037,1.25401 0.28306,1.78557 0,0 0,0 0,0 0.25511,0.56421 0.76966,1.00637 1.35371,1.28003 0.69894,0.59778 1.04074,1.42604 1.46774,2.09912 0.4193,0.63437 1.11185,1.1133 1.83892,1.07681 2.1171,0.68212 3.64868,2.35723 5.32021,3.62418 1.10513,0.28881 2.03041,1.00045 2.76425,1.82511 0,0 0,0 0,0 0.72583,0.80406 1.32471,1.68411 2.06548,2.39159 0.49674,0.22411 0.99671,0.57815 1.25906,1.13361 0.19344,0.44555 0.19632,0.91724 0.1454,1.34016 -0.0891,0.97752 -0.22111,1.96972 0.25491,2.69296"
         id="path10857"
         inkscape:original-d="m 571,490.8948 c 1.04442,2.21331 3.65307,2.09407 5.69434,2.96248 2.54654,-0.68363 5.19803,0.89916 7.62247,-0.2854 1.35753,-1.89957 3.76294,-2.02487 5.89072,-2.50593 3.30397,-0.0689 3.86003,-4.44218 7.21902,-4.46864 2.36879,-1.23461 5.24278,-0.1044 7.72283,-0.73929 2.23375,0.93023 4.10786,2.66421 5.13329,4.78739 1.22039,1.85553 2.07886,4.09707 1.39622,6.37585 -0.86327,2.13353 -2.61538,4.05216 -2.3859,6.47345 0.54947,2.48833 -1.33151,6.01995 1.67445,7.40302 1.2587,1.0474 1.30211,3.2714 3.4079,3.21153 2.16665,0.68632 3.52779,2.30089 5.24541,3.60004 2.30049,0.59299 3.25629,2.72928 4.79491,4.19852 2.60979,1.24976 0.30891,3.01846 1.58434,5.09218"
         inkscape:path-effect="#path-effect10996"
         style="fill:#b3cccd;stroke:#b3cccd;stroke-width:0.25000000000000000;stroke-linecap:butt;stroke-linejoin:miter;stroke-miterlimit:4;stroke-opacity:1;stroke-dasharray:none;fill-opacity:1" />
    </g>
  </g>
  <g
     inkscape:label="Features"
     id="layer2"
     inkscape:groupmode="layer">
    <text
       sodipodi:linespacing="125%"
       id="text3767"
       y="710.55615"
       x="652.71179"
       style="font-size:10px;font-style:normal;font-variant:normal;font-weight:normal;font-stretch:normal;line-height:125%;letter-spacing:0px;word-spacing:0px;fill:#000000;fill-opacity:1;stroke:none;font-family:OpenSymbol;-inkscape-font-specification:OpenSymbol"
       xml:space="preserve"><tspan
         y="710.55615"
         x="652.71179"
         id="tspan3769"
         sodipodi:role="line">▲</tspan></text>
    <text
       sodipodi:linespacing="125%"
       id="text3767-7"
       y="483.52649"
       x="545.67218"
       style="font-size:4px;font-style:normal;font-variant:normal;font-weight:normal;font-stretch:normal;line-height:125%;letter-spacing:0px;word-spacing:0px;fill:#000000;fill-opacity:1;stroke:none;font-family:OpenSymbol;-inkscape-font-specification:OpenSymbol"
       xml:space="preserve"><tspan
         y="483.52649"
         x="545.67218"
         id="tspan3769-3"
         sodipodi:role="line">▲</tspan></text>
    <text
       sodipodi:linespacing="125%"
       id="text3767-7-4"
       y="324.26904"
       x="389.29596"
       style="font-size:10px;font-style:normal;font-variant:normal;font-weight:normal;font-stretch:normal;line-height:125%;letter-spacing:0px;word-spacing:0px;fill:#000000;fill-opacity:1;stroke:none;font-family:OpenSymbol;-inkscape-font-specification:OpenSymbol"
       xml:space="preserve"><tspan
         y="324.26904"
         x="389.29596"
         id="tspan3769-3-3"
         sodipodi:role="line">▲</tspan></text>
    <text
       sodipodi:linespacing="125%"
       id="text3767-7-7"
       y="254.41756"
       x="534.04846"
       style="font-size:10px;font-style:normal;font-variant:normal;font-weight:normal;font-stretch:normal;line-height:125%;letter-spacing:0px;word-spacing:0px;fill:#000000;fill-opacity:1;stroke:none;font-family:OpenSymbol;-inkscape-font-specification:OpenSymbol"
       xml:space="preserve"><tspan
         y="254.41756"
         x="534.04846"
         id="tspan3769-3-4"
         sodipodi:role="line">▲</tspan></text>
    <text
       sodipodi:linespacing="125%"
       id="text3767-7-1"
       y="321.74429"
       x="795.78113"
       style="font-size:10px;font-style:normal;font-variant:normal;font-weight:normal;font-stretch:normal;line-height:125%;letter-spacing:0px;word-spacing:0px;fill:#000000;fill-opacity:1;stroke:none;font-family:OpenSymbol;-inkscape-font-specification:OpenSymbol"
       xml:space="preserve"><tspan
         y="321.74429"
         x="795.78113"
         id="tspan3769-3-48"
         sodipodi:role="line">▲</tspan></text>
    <text
       sodipodi:linespacing="125%"
       id="text3767-7-71"
       y="295.65518"
       x="116.62269"
       style="font-size:10px;font-style:normal;font-variant:normal;font-weight:normal;font-stretch:normal;line-height:125%;letter-spacing:0px;word-spacing:0px;fill:#000000;fill-opacity:1;stroke:none;font-family:OpenSymbol;-inkscape-font-specification:OpenSymbol"
       xml:space="preserve"><tspan
         y="295.65518"
         x="116.62269"
         id="tspan3769-3-0"
         sodipodi:role="line">▲</tspan></text>
    <text
       xml:space="preserve"
       style="font-size:4px;font-style:normal;font-variant:normal;font-weight:normal;font-stretch:normal;line-height:125%;letter-spacing:0px;word-spacing:0px;fill:#000000;fill-opacity:1;stroke:none;font-family:OpenSymbol;-inkscape-font-specification:OpenSymbol"
       x="565"
       y="520"
       id="text4364"
       sodipodi:linespacing="125%"><tspan
         sodipodi:role="line"
         id="tspan4366"
         x="565"
         y="520">✪</tspan></text>
    <text
       xml:space="preserve"
       style="font-size:4px;font-style:normal;font-variant:normal;font-weight:normal;font-stretch:normal;line-height:125%;letter-spacing:0px;word-spacing:0px;fill:#000000;fill-opacity:1;stroke:none;font-family:OpenSymbol;-inkscape-font-specification:OpenSymbol"
       x="635"
       y="655"
       id="text4368"
       sodipodi:linespacing="125%"><tspan
         sodipodi:role="line"
         id="tspan4370"
         x="635"
         y="655">●</tspan></text>
    <text
       xml:space="preserve"
       style="font-size:4px;font-style:normal;font-variant:normal;font-weight:normal;font-stretch:normal;line-height:125%;letter-spacing:0px;word-spacing:0px;fill:#000000;fill-opacity:1;stroke:none;font-family:OpenSymbol;-inkscape-font-specification:OpenSymbol"
       x="639.62872"
       y="648.78955"
       id="text4372"
       sodipodi:linespacing="125%"><tspan
         sodipodi:role="line"
         id="tspan4374"
         x="639.62872"
         y="648.78955">Economic capital</tspan><tspan
         sodipodi:role="line"
         x="639.62872"
         y="653.78955"
         id="tspan4376">(destroyed by lahar)</tspan></text>
    <text
       xml:space="preserve"
       style="font-size:4px;font-style:normal;font-variant:normal;font-weight:normal;font-stretch:normal;line-height:125%;letter-spacing:0px;word-spacing:0px;fill:#000000;fill-opacity:1;stroke:none;font-family:OpenSymbol;-inkscape-font-specification:OpenSymbol"
       x="575.43317"
       y="516.1015"
       id="text4378"
       sodipodi:linespacing="125%"><tspan
         sodipodi:role="line"
         id="tspan4380"
         x="575.43317"
         y="516.1015">Political and cultural capital</tspan><tspan
         sodipodi:role="line"
         x="575.43317"
         y="521.1015"
         id="tspan4382">(destroyed by pyrocastic flow)</tspan></text>
    <text
       xml:space="preserve"
       style="font-size:4px;font-style:normal;font-variant:normal;font-weight:normal;font-stretch:normal;line-height:125%;letter-spacing:0px;word-spacing:0px;fill:#000000;fill-opacity:1;stroke:none;font-family:OpenSymbol;-inkscape-font-specification:OpenSymbol"
       x="663.16833"
       y="697.2525"
       id="text4384"
       sodipodi:linespacing="125%"><tspan
         sodipodi:role="line"
         x="663.16833"
         y="697.2525"
         id="tspan4392">Citadel Rock</tspan></text>
    <text
       xml:space="preserve"
       style="font-size:4px;font-style:normal;font-variant:normal;font-weight:normal;font-stretch:normal;line-height:125%;letter-spacing:0px;word-spacing:0px;fill:#000000;fill-opacity:1;stroke:none;font-family:OpenSymbol;-inkscape-font-specification:OpenSymbol"
       x="550.39606"
       y="476.75742"
       id="text4396"
       sodipodi:linespacing="125%"><tspan
         sodipodi:role="line"
         id="tspan4398"
         x="550.39606"
         y="476.75742">Mt Elfdoom</tspan></text>
    <path
       style="fill:none;stroke:#000000;stroke-width:0.25;stroke-linecap:butt;stroke-linejoin:miter;stroke-miterlimit:4;stroke-opacity:1;stroke-dasharray:none"
       inkscape:path-effect="#path-effect11456"
       inkscape:original-d="m 548.37532,448.26342 c 0.11914,-1.36871 0.17422,-2.71418 0.71327,-4.0139 0.63394,-1.03475 1.21651,-1.83671 -0.0105,-2.73157 -0.45683,-0.90856 -0.83558,-1.9837 -0.4923,-3.01993 -0.39945,-1.14318 -1.44804,-2.10054 -1.02927,-3.44563 -0.4591,-1.60384 -0.10471,-3.36509 -1.11554,-4.79044 0.0818,-1.27801 0.41583,-2.3621 0.97985,-3.55841 0.25745,-1.13918 -1.10762,-2.59439 0.62341,-2.89996 0.95374,-0.63665 0.92602,-2.08416 2.0697,-2.60911 0.56739,-1.0101 0.66888,-2.28842 1.70653,-2.9694 0.72057,-1.40559 2.48557,-2.47662 3.95068,-1.64188 1.1793,0.49816 2.94354,2.5245 4.22885,2.41681"
       id="path11773"
       d="m 548.37532,448.26342 c 0.11837,-1.35988 0.19033,-2.75302 0.71327,-4.0139 0.27654,-0.45138 0.60801,-0.89569 0.69261,-1.41824 0.0841,-0.51931 -0.27807,-1.00335 -0.70311,-1.31333 0,0 0,0 0,0 -0.47057,-0.93588 -0.82172,-2.02555 -0.4923,-3.01993 -0.20258,-0.57976 -0.55937,-1.0917 -0.82147,-1.6471 -0.26425,-0.55996 -0.39186,-1.20734 -0.2078,-1.79853 0,0 0,0 0,0 -0.45592,-1.59274 -0.15717,-3.43906 -1.11554,-4.79044 0.0791,-1.23564 0.45183,-2.43847 0.97985,-3.55841 0.13185,-0.58343 -0.14047,-1.17293 -0.24089,-1.76258 0,0 0,-1e-5 0,-1e-5 -0.0411,-0.24152 -0.0541,-0.50599 0.0728,-0.71553 0,0 0,-10e-6 0,-10e-6 0.15965,-0.26351 0.48807,-0.36827 0.79148,-0.42183 0.46478,-0.31025 0.71237,-0.8473 0.96362,-1.34644 0,0 0,0 0,0 0.25701,-0.51058 0.58658,-1.02422 1.10608,-1.26267 0.56809,-1.01134 0.73675,-2.33296 1.70653,-2.9694 0,0 0,0 0,0 0.36724,-0.71636 0.9689,-1.31588 1.69614,-1.66106 0,0 0,0 0,0 0.70704,-0.3356 1.57453,-0.36825 2.25454,0.0192 0.77631,0.32793 1.3977,0.93371 2.07467,1.4356 0.64634,0.47918 1.3524,1.04839 2.15418,0.98121"
       inkscape:connector-curvature="0"
       sodipodi:nodetypes="cccccccccccc" />
    <path
       style="fill:none;stroke:#000000;stroke-width:0.25;stroke-linecap:butt;stroke-linejoin:miter;stroke-miterlimit:4;stroke-opacity:1;stroke-dasharray:none"
       d="m 604.77488,443.91783 c -0.0986,0.20638 -0.21663,0.42979 -0.34493,0.38332 -0.19168,0.0153 -0.40694,-0.13525 -0.66105,-0.26946 -0.26711,-0.15585 -0.55704,-0.33681 -0.90424,-0.43284 0,0 0,0 0,0 -0.34172,-0.0999 -0.71608,-0.0169 -0.97401,0.23692 -0.37187,0.15372 -0.69454,0.42798 -0.88798,0.79335 0,0 0,0 0,0 -0.11511,0.24171 -0.18177,0.4811 -0.33485,0.55707 -0.32552,-0.10337 -0.63503,0.0219 -0.85252,0.20274 -0.25084,0.15925 -0.4648,0.34054 -0.6795,0.32704 -0.19229,0.11856 -0.47664,0.0534 -0.76561,-0.003 0,0 0,0 0,0 -0.26878,-0.0847 -0.605,-0.13629 -0.905,0.0303 -0.41965,0.0259 -0.93474,-0.24169 -1.45937,-0.0462 -0.5157,-0.46973 -1.24268,-0.20112 -1.81815,-0.19401 -0.50394,-0.11449 -1.03028,-0.0129 -1.48764,0.1959 -0.29229,0.41432 -1.08767,0.21014 -1.54142,0.65796 0,0 0,0 0,0 -0.0522,0.44286 -0.52696,0.77571 -0.65145,1.27268 0,0 0,0 0,0 0.11663,0.39079 -0.21244,0.77721 -0.41516,1.1764 -0.31439,0.2734 -0.55616,0.62912 -0.68808,1.02342 -0.0671,0.46463 -0.62323,0.70932 -0.85143,1.14767 -0.44951,0.62007 -0.42464,1.56395 -1.07873,1.97083 -0.5952,0.45866 -1.40102,0.78208 -1.5983,1.48308 0,0 0,0 0,0 -0.39406,0.4445 -0.43813,1.09869 -0.65901,1.68677 0,0 0,0 0,0 -0.40985,0.38657 -0.2474,1.0891 -0.47234,1.68306 0.0887,0.49142 -0.33794,0.87334 -0.40069,1.25795 0,1e-5 0,1e-5 0,1e-5 -0.31537,0.6748 -0.92868,1.17332 -1.07121,1.82626 -0.3693,0.16763 -0.65606,0.51056 -1.02518,0.78616 -0.18388,0.44742 -0.6911,0.52457 -1.06996,0.56623 -0.48383,0.0539 -0.91514,0.37763 -1.37282,0.67139 0,0 0,0 0,0 -0.68175,0.1808 -1.3698,0.27888 -1.99805,0.50259 0,0 0,0 0,0 -0.42613,0.5674 -1.14211,0.78347 -1.79832,0.79063 -0.54256,0.4224 -1.19753,0.58952 -1.76959,0.80228 -0.24186,-0.0946 -0.66895,0.3598 -1.31766,0.22216 0.64716,0.14204 1.08705,-0.30787 1.31853,-0.20881 0.57148,-0.2051 1.22664,-0.36434 1.78026,-0.78472 0.65856,0.004 1.37956,-0.204 1.81841,-0.77774 0,-1e-5 0,-1e-5 0,-1e-5 0.62383,-0.21377 1.30954,-0.30189 1.99794,-0.47463 0,0 0,0 10e-6,0 0.46839,-0.28974 0.89712,-0.60624 1.35511,-0.64747 0.37143,-0.0156 0.89845,-0.0994 1.14085,-0.60079 0.3907,-0.28565 0.68059,-0.62713 1.02643,-0.77668 0.13716,-0.6148 0.76421,-1.11382 1.12411,-1.85262 0,0 0,0 0,0 0.0524,-0.29765 0.48268,-0.68077 0.41639,-1.29027 0.26435,-0.65277 0.10477,-1.33719 0.46597,-1.59768 0,0 0,0 10e-6,0 0.25756,-0.63952 0.31255,-1.29962 0.68214,-1.6875 0,0 0,0 0,0 0.13615,-0.60162 0.92096,-0.88603 1.55302,-1.3924 0.76912,-0.53349 0.78259,-1.50749 1.16423,-2.02421 0.16748,-0.32173 0.73415,-0.58017 0.89764,-1.21529 0.12758,-0.35192 0.35539,-0.67153 0.64479,-0.91634 0,0 0,0 0,0 0.21799,-0.3324 0.57056,-0.77026 0.48686,-1.34953 0,0 0,0 0,0 0.0557,-0.29694 0.51979,-0.5776 0.62942,-1.14118 0,0 0,0 0,0 0.19509,-0.26263 0.95269,-0.009 1.47069,-0.53511 0.40493,-0.16005 0.85222,-0.23221 1.24701,-0.11068 0.75077,0.0535 1.48295,-0.22366 1.80131,0.15541 0.39868,-0.16351 0.96215,0.12284 1.62943,0.10055 0.14848,-0.11509 0.41408,-0.0545 0.69933,-0.007 0,0 0,0 10e-6,0 0.26196,0.0937 0.60722,0.15975 0.95473,0.003 0.36715,-0.0147 0.63158,-0.21012 0.82375,-0.36848 0.23523,-0.12553 0.47788,-0.23506 0.64634,-0.15811 0.35219,-0.20023 0.5367,-0.4997 0.68295,-0.73301 0,0 0,0 0,0 0.15965,-0.28477 0.43725,-0.50697 0.75192,-0.63986 0,0 0,0 0,0 0.14442,-0.15449 0.39925,-0.21092 0.61517,-0.16229 0.25839,0.066 0.50912,0.23426 0.7902,0.3959 0.22822,0.14628 0.51692,0.32078 0.88734,0.342 0.43796,-0.043 0.71156,-0.3681 0.80219,-0.68902"
       id="path11301"
       inkscape:connector-curvature="0"
       inkscape:path-effect="#path-effect11761"
       inkscape:original-d="m 573,465 c 0.46641,0.16372 0.76902,-0.31951 1.22433,-0.21129 0.57317,-0.21764 1.21526,-0.37218 1.71534,-0.76964 0.64712,-0.0281 1.35344,-0.21676 1.76368,-0.75039 0.66418,-0.23182 1.36559,-0.33047 2.03726,-0.50509 0.4486,-0.28976 0.86813,-0.60677 1.41604,-0.66791 0.43695,-0.0776 0.82578,0.0127 0.99018,-0.49713 0.35211,-0.25826 0.64096,-0.59726 1.04536,-0.77959 0.16079,-0.69312 0.7692,-1.16713 1.0638,-1.78839 0.0793,-0.45135 0.51919,-0.74086 0.41353,-1.23586 0.2143,-0.56221 0.0292,-1.24941 0.49947,-1.70847 0.21595,-0.566 0.25552,-1.20795 0.67399,-1.67392 0.22384,-0.73716 1.04785,-1.04434 1.62318,-1.47606 0.6851,-0.41176 0.64877,-1.3504 1.09592,-1.95347 0.23104,-0.43276 0.77841,-0.61754 0.8683,-1.14694 0.13963,-0.40114 0.37536,-0.73478 0.69292,-1.00492 0.20793,-0.3866 0.55648,-0.72659 0.43759,-1.20166 0.12049,-0.47863 0.58515,-0.74531 0.65807,-1.24263 0.42347,-0.42851 1.1364,-0.12675 1.53371,-0.61877 0.44,-0.19022 0.94671,-0.28253 1.42056,-0.16128 0.61204,0.0157 1.30348,-0.30771 1.81049,0.19401 0.50493,-0.19066 1.02853,0.0956 1.5211,0.0752 0.53416,-0.31879 1.11447,0.27884 1.66705,-0.007 0.5754,0.008 0.89734,-0.73988 1.50776,-0.51864 C 601.22212,445.05975 601,444.41037 602,444 c 1,-1 2.41839,1.59335 3,0"
       sodipodi:nodetypes="cccccccccccccccccccccccccc" />
    <path
       inkscape:connector-curvature="0"
       id="path11578"
       d="m 614.90547,450.18597 c -0.38494,-0.7196 -1.34076,-0.68394 -1.72118,-1.32628 -0.40881,-0.59581 -0.62845,-1.41894 -1.46241,-1.50268 -0.72714,-0.55432 -1.30182,-1.52009 -2.35839,-1.47077 -0.057,-0.68891 -0.46716,-1.42338 -0.4904,-2.12434 0.48053,-1.92409 -0.66599,-3.74568 -0.69851,-5.63944 -0.0445,-0.70311 -0.13637,-1.34741 -0.13138,-2.05543 0.0905,-0.62657 0.15353,-1.38534 0.49417,-1.97022 0.63868,-1.02876 -0.65923,-1.71636 -1.25248,-2.37161 -0.73806,-0.44678 -1.46978,-1.13674 -1.54017,-2.06361 -0.67423,-0.34957 -1.36847,0.13641 -2.01868,-0.31223 -0.76748,0.0207 -1.27452,-0.49949 -1.83275,-0.86598 -0.80058,-0.24216 -1.23029,-1.24118 -2.17339,-1.2324 -0.75352,0.20451 -1.51758,0.0639 -2.27873,0.12911 -1.17056,0.48717 -2.34907,-1.03915 -3.48816,-0.22715 -0.89338,0.15015 -2.03477,-0.27809 -2.74035,0.54814 -0.74816,0.88309 -2.17721,0.6105 -2.99723,1.46028 -0.98189,0.89337 -2.39392,-0.10338 -3.48791,0.51908 -0.82039,-0.11834 -1.618,-0.37197 -2.43733,-0.29087 -0.75732,-0.25892 -1.08139,-0.97723 -1.97781,-0.79755 -1.00279,-0.13476 -1.03437,-1.5594 -2.07576,-1.71735 -0.7434,-0.34922 -1.4969,-0.71024 -2.16104,-1.20294 -0.10951,-0.96055 -1.14223,-0.76925 -1.83169,-0.923 -0.82969,-0.0711 -1.02134,-0.95194 -1.61378,-1.35818 0.15859,-0.88896 -0.65606,-1.10224 -1.23571,-1.47348 -0.44187,-0.63305 -1.06084,-0.75893 -1.71108,-0.37084 -0.74412,0.13778 -1.54309,0.11468 -2.15083,0.63305 -0.76883,-0.34977 -1.50009,0.44605 -2.18983,-0.0924 -0.85913,-0.0475 -1.1006,-0.65854 -1.54749,-1.26169 -0.76065,-0.96623 -2.07795,-0.9432 -3.14804,-1.20149 -1.03026,-0.642 0.65282,0.43721 0.67544,0.88041 0.1619,0.8645 1.06499,1.34074 1.06958,2.23733 0.44592,0.52381 0.85365,1.39423 1.67058,1.02948 0.63181,-0.62401 1.29246,0.3925 2.04641,0.10182 0.71496,-0.0638 1.23641,-0.95848 2.0331,-0.47608 0.80039,0.3818 0.98508,1.46795 1.55673,2.1264 0.82626,0.944 0.0157,2.471 1.08054,3.27705 0.36609,0.65583 0.40421,1.40427 0.81151,2.05842 0.31108,0.75125 0.9078,1.63821 1.84128,1.2527 0.77633,-0.027 1.39233,0.49716 2.1503,0.55301 0.63264,0.40968 1.47511,0.39758 2.19336,0.36001 0.90317,-0.16982 1.85066,-0.81476 2.72811,-0.24558 0.86676,0.3299 1.52729,-0.49065 2.39873,-0.36039 0.87948,0.15316 1.76392,-0.31383 2.6211,0.11116 1.13215,0.45949 2.40079,0.39309 3.57371,0.74834 1.08349,0.0934 1.96493,-0.67754 2.92714,-0.93346 0.90438,0.16841 1.80325,0.59734 2.69627,0.15108 1.18137,-0.0637 2.22363,-1.18999 3.42569,-0.66427 0.68127,0.5174 1.61625,-0.0625 2.11375,0.67021 0.69322,1.04562 2.26709,0.94117 2.79745,2.14512 0.55694,0.48717 1.30021,0.90666 1.0932,1.79652 0.96152,0.93175 1.21529,2.52399 0.65389,3.72553 0.21216,1.30287 -0.25769,2.65488 0.16012,3.90951 0.38001,0.65417 0.90073,1.18821 1.29171,1.76935 0.91882,0.41672 0.56989,1.56963 1.13006,2.20927 0.169,0.80301 1.21163,0.51477 1.78063,0.95565 0.8524,-0.14289 1.29193,-0.0831 1.867,0.58591 0.70267,0.39351 1.457,0.78122 2.25949,0.67704 0.539,0.47675 0.98002,-0.4016 1.61202,-0.09"
       style="fill:none;stroke:#000000;stroke-width:0.15400447;stroke-linecap:butt;stroke-linejoin:miter;stroke-miterlimit:4;stroke-opacity:1;stroke-dasharray:none" />
    <path
       inkscape:connector-curvature="0"
       id="path11926"
       d="M576.0 412.0L576.344753853 411.824546359L576.70450385 411.682352344L577.026646154 411.44493085L577.424461506 411.401484612L577.824616842 411.410006989L578.219916839 411.472735265L578.540136833 411.211371695L578.94806 411.14466L579.495294331 411.084902066L579.978442014 410.821074963L580.505340788 410.658466113L581.053522589 410.718137463L581.574432828 410.879171192L582.119627506 410.872682502L582.633473291 411.034229336L583.14986 411.18746L583.337489722 411.509724574L583.495068554 411.847701318L583.566241476 412.217500493L583.741564425 412.550785473L583.955618885 412.865195692L584.199579885 413.157010921L584.523209264 413.356861429L584.86501 413.52374L584.951544841 413.870133484L584.953949717 414.227164212L585.096162178 414.553405188L585.17904662 414.899508825L585.165518754 415.260630782L585.304308421 415.594291536L585.252438766 415.955204568L585.38216 416.29597L585.457593465 416.676974647L585.702426338 416.978490176L585.917176012 417.289267283L586.089946472 417.625199123L586.058468851 418.013490732L586.21779919 418.368983429L586.281724284 418.744500337L586.44492 419.08869L586.730218078 419.270476179L586.998379396 419.476705945L587.262737427 419.687877541L587.54600584 419.872911642L587.805923541 420.108998603L587.995440925 420.404595331L588.306983384 420.562641074L588.64065 420.6661L588.870242366 420.355209194L589.210212996 420.171400273L589.564076244 420.038512622L589.897860226 419.861124406L590.277173233 419.913605468L590.645020719 419.807206002L590.989421789 419.639319531L591.3724 419.62811L591.579552824 419.163188602L591.963449584 418.828991839L592.319981627 418.478509062L592.744003673 418.213634414L593.251513551 418.238531279L593.756032377 418.17814183L594.222238404 417.975199323L594.64361 417.69063L594.89446312 417.546836948L595.155383182 417.422239795L595.325322831 417.18762605L595.527257969 416.979911597L595.535397288 416.676438316L595.697985915 416.420065113L595.861153262 416.168265293L596.11681 416.01121L596.214127247 416.007963015L596.308357264 415.983429497L596.405100822 415.9702494L596.501907992 415.982953852L596.587722157 415.937848782L596.663798724 415.877758066L596.747928181 415.830036625L596.82546 415.77221L597.098722457 415.68585949L597.384683329 415.704705204L597.675454518 415.690837082L597.935827369 415.821014605L598.184730676 415.696500456L598.434513504 415.573760206L598.716076392 415.534032459L598.95801 415.38462L599.239728827 415.288738107L599.534873722 415.326794982L599.781316084 415.48463554L600.061428883 415.569395785L600.32238527 415.683957399L600.556234034 415.8468603L600.831664639 415.917964185L601.11467 415.9467L601.297707892 415.988079793L601.462607631 416.077652297L601.605916392 416.202326151L601.787307314 416.258702606L601.96453009 416.335700522L602.156729403 416.315800391L602.342656325 416.296710739L602.52855 416.2773L602.458379149 416.246996754L602.389555917 416.213746222L602.326344794 416.168855023L602.281672783 416.10548881L602.207802252 416.08791379L602.14157788 416.050764505L602.065353081 416.0405424L602.0 416.0"
       style="fill:none;stroke:#000000;stroke-width:0.25;stroke-linecap:butt;stroke-linejoin:miter;stroke-miterlimit:4;stroke-opacity:1;stroke-dasharray:none" />
    <path
       style="fill:none;stroke:#000000;stroke-width:0.25617376;stroke-linecap:butt;stroke-linejoin:miter;stroke-miterlimit:4;stroke-opacity:1;stroke-dasharray:none"
       d="m 574.25799,414.36066 0.32926,-0.20493 0.3509,-0.17344 0.29454,-0.2641 0.40834,-0.0794 0.42018,-0.0277 0.42468,0.0258 0.28827,-0.28759 0.41476,-0.10324 0.56172,-0.10918 0.45825,-0.30493 0.52208,-0.20889 0.58406,0.009 0.57365,0.11145 0.56921,-0.0558 0.56634,0.11262 0.56753,0.10416 0.25383,0.30129 0.22522,0.31956 0.14055,0.35892 0.24293,0.31331 0.28008,0.29111 0.30733,0.26603 0.37422,0.16788 0.38735,0.13363 0.15236,0.33438 0.0659,0.35263 0.20705,0.30938 0.14855,0.33443 0.0504,0.35809 0.20479,0.31701 0.0102,0.3614 0.19656,0.32487 0.14695,0.3696 0.30998,0.27555 0.28014,0.28746 0.24075,0.31615 0.0358,0.38664 0.23017,0.33671 0.13398,0.36523 0.2322,0.32519 0.33091,0.15354 0.31734,0.17925 0.31426,0.18448 0.32935,0.15692 0.31406,0.20952 0.25105,0.27476 0.35411,0.12767 0.3675,0.0717 0.18461,-0.32823 0.32277,-0.21275 0.34641,-0.1637 0.31743,-0.20584 0.40614,0.0172 0.36577,-0.13881 0.33025,-0.19743 0.3986,-0.0461 0.1336,-0.47839 0.34185,-0.36538 0.31032,-0.37897 0.3962,-0.30055 0.53531,-0.0218 0.51694,-0.10586 0.4514,-0.24321 0.3899,-0.31977 0.23671,-0.16504 0.25066,-0.14701 0.13583,-0.24739 0.17413,-0.22375 -0.0459,-0.30061 0.12426,-0.26822 0.12568,-0.26376 0.23936,-0.1786 0.1012,-0.0119 0.0941,-0.0328 0.0988,-0.0219 0.1035,0.004 0.0817,-0.0524 0.0688,-0.0663 0.0794,-0.0548 0.0708,-0.0642 0.27041,-0.11029 0.30247,-0.008 0.30167,-0.0403 0.29561,0.10481 0.2381,-0.14582 0.23934,-0.14415 0.28743,-0.065 0.22637,-0.16978 0.27754,-0.12055 0.31551,0.0105 0.28599,0.13343 0.30815,0.0582 0.29344,0.0893 0.2737,0.13958 0.3008,0.0451 0.30116,0.002 0.19886,0.0242 0.18849,0.0735 0.17219,0.11009 0.19981,0.0391 0.19912,0.0599 0.1975,-0.0373 0.19106,-0.0359 0.19098,-0.0362 -0.0788,-0.0235 -0.0779,-0.0266 -0.0741,-0.0386 -0.058,-0.0586 -0.0804,-0.0106 -0.076,-0.0306 -0.0816,-0.003 -0.075,-0.0353"
       id="path12077"
       inkscape:connector-curvature="0" />
  </g>
</svg>
