<?xml version="1.0" encoding="UTF-8" standalone="no"?>
<!-- Created with Inkscape (http://www.inkscape.org/) -->

<svg
   xmlns:osb="http://www.openswatchbook.org/uri/2009/osb"
   xmlns:dc="http://purl.org/dc/elements/1.1/"
   xmlns:cc="http://creativecommons.org/ns#"
   xmlns:rdf="http://www.w3.org/1999/02/22-rdf-syntax-ns#"
   xmlns:svg="http://www.w3.org/2000/svg"
   xmlns="http://www.w3.org/2000/svg"
   xmlns:xlink="http://www.w3.org/1999/xlink"
   xmlns:sodipodi="http://sodipodi.sourceforge.net/DTD/sodipodi-0.dtd"
   xmlns:inkscape="http://www.inkscape.org/namespaces/inkscape"
   sodipodi:docname="campaign.svg"
   inkscape:version="0.48.4 r9939"
   version="1.1"
   id="svg2"
   height="765"
   width="990">
  <sodipodi:namedview
     id="base"
     pagecolor="#ffffff"
     bordercolor="#666666"
     borderopacity="1.0"
     inkscape:pageopacity="1"
     inkscape:pageshadow="2"
     inkscape:zoom="0.73434343"
     inkscape:cx="514.15891"
     inkscape:cy="369.97006"
     inkscape:document-units="px"
     inkscape:current-layer="layer1"
     showgrid="true"
     gridtolerance="2"
     guidetolerance="10"
     inkscape:window-width="1855"
     inkscape:window-height="1056"
     inkscape:window-x="65"
     inkscape:window-y="24"
     inkscape:window-maximized="1">
    <inkscape:grid
       dotted="true"
       snapvisiblegridlinesonly="true"
       enabled="true"
       visible="true"
       empspacing="5"
       id="grid2985"
       type="xygrid" />
  </sodipodi:namedview>
  <defs
     id="defs4">
    <linearGradient
       id="linearGradient5553"
       osb:paint="solid">
      <stop
         style="stop-color:#000000;stop-opacity:1;"
         offset="0"
         id="stop5555" />
    </linearGradient>
    <linearGradient
       inkscape:collect="always"
       xlink:href="#linearGradient5553"
       id="linearGradient5557"
       x1="-0.5"
       y1="370.27494"
       x2="990.5"
       y2="370.27494"
       gradientUnits="userSpaceOnUse" />
  </defs>
  <metadata
     id="metadata7">
    <rdf:RDF>
      <cc:Work
         rdf:about="">
        <dc:format>image/svg+xml</dc:format>
        <dc:type
           rdf:resource="http://purl.org/dc/dcmitype/StillImage" />
        <dc:title />
      </cc:Work>
    </rdf:RDF>
  </metadata>
  <g
     style="display:inline"
     transform="translate(0,-287.36218)"
     id="layer1"
     inkscape:groupmode="layer"
     inkscape:label="Landmass">
    <path
       style="fill:#dbe0d2;stroke:#000000;stroke-width:1px;stroke-linecap:butt;stroke-linejoin:miter;stroke-opacity:1;fill-opacity:1"
       d="M 990,0 0,0 l 0,665.46896 1.2601218,5.25685 1.4795198,1.54818 2.0409255,0.76581 1.5862541,1.49521 2.1578517,0.68791 2.2630261,-0.0909 1.05535,2.09164 2.076142,1.08553 1.973618,-1.02345 2.184615,0.4124 2.077963,-0.50466 2.119213,0.28556 2.079052,0.3899 2.095714,0.28718 2.065339,-0.68886 2.149876,0.34379 1.864256,-0.74306 1.913051,0.60648 1.343538,1.34507 1.602244,1.02328 1.912466,0.20018 1.736092,-0.82679 1.971255,0.12551 1.408711,1.38461 1.888485,-0.0607 1.517356,1.12592 1.785176,0.18145 1.783331,-0.19876 1.618107,0.88603 1.802607,0.39233 1.810412,-0.24505 1.789876,-0.36604 0.299849,1.33982 1.123411,0.7893 1.183317,0.57168 0.813036,1.03249 1.317973,0.29332 1.349789,0.034 1.011482,0.8922 0.846104,1.05034 0.793423,1.1263 1.234887,0.61083 1.345418,0.29172 1.323694,-0.37827 0.766412,1.15568 1.33428,0.37771 1.321053,-0.44869 1.277311,0.56123 -0.255262,1.21267 0.636183,1.06348 0.656964,0.94872 0.635554,0.96319 0.637227,0.99459 0.09188,1.17764 0.726761,0.88569 0.714822,0.89534 0.433422,1.09154 0.718963,0.92865 1.197561,0.32728 0.689213,1.03259 0.935734,0.6487 1.00748,0.53046 1.04389,0.47909 0.863002,0.75794 0.862612,0.98619 1.089041,0.72847 0.861385,1.00962 1.19418,0.57899 0.288332,1.39599 0.994509,1.0212 -0.216589,1.35101 -0.204148,1.35295 -0.09138,1.29823 0.01578,1.30134 0.918114,1.03238 0.05191,1.3806 0.673789,1.17492 1.261471,0.49307 0.858198,0.94793 0.770648,1.02039 1.427539,0.46955 1.430652,-0.45998 1.48373,0.22046 1.08213,1.03878 1.14106,0.96176 1.38865,0.54647 0.46821,1.39796 0.59954,1.34688 1.38806,0.19332 1.34144,0.40575 1.27012,0.74762 0.562,1.36245 1.36965,0.16693 1.37584,0.10407 1.13769,0.78332 1.05042,0.89696 1.72853,0.60359 0.93085,1.5766 1.70238,0.28557 1.62556,0.58069 1.62248,-0.44296 1.65626,-0.29238 1.60199,-0.60747 1.71242,0.0547 1.63637,0.0948 1.60419,0.33661 1.69317,0.36011 1.1024,1.33462 1.51554,0.64456 1.57387,0.48501 1.18209,1.14634 1.06583,1.25516 0.90913,-1.32713 0.61748,-1.48543 0.20282,-1.59362 0.48264,-1.53226 -1.10427,-1.26114 -0.29107,-1.65081 -0.56699,-1.58372 0.37593,-1.63961 -1.49053,-0.74494 -1.59647,-0.47736 -0.45913,-1.66466 -1.27067,-1.16931 0.1459,-1.63803 -0.70331,-1.48655 -0.42687,-1.54991 -0.89415,-1.33602 0.9744,-0.64207 0.65353,-0.96674 0.47545,-1.04262 0.36582,-1.08593 1.0542,-0.55587 0.5834,-1.03921 0.35776,-1.08924 0.52211,-1.0207 0.63123,-1.0119 0.44007,-1.10847 0.15237,-1.22127 -0.48563,-1.13088 1.0196,-0.68203 0.78772,-0.94035 0.47199,-1.17161 -0.21936,-1.24391 3.08326,1.0289 2.79482,1.65956 1.26035,2.97608 1.30462,2.95693 3.08182,0.25472 2.70704,1.49481 3.17475,-0.70976 2.79754,1.6603 3.09346,0.0408 2.80818,1.29818 2.55017,-1.81422 3.11349,-0.3177 3.02872,0.19405 2.73252,1.32063 2.86255,-0.85956 2.96527,-0.37441 1.35556,0.43062 1.10976,0.88962 0.74915,1.23337 1.24836,0.72389 1.34517,-0.52521 1.44076,-0.0976 1.2321,0.89391 1.51708,-0.1249 1.22025,0.58774 1.35397,0.0349 1.23718,0.67434 1.38139,-0.27767 1.23972,-0.80598 1.47101,0.15038 1.25069,0.62148 1.31169,0.47948 1.37845,0.59593 1.46528,-0.32897 1.27674,-0.64689 1.35119,-0.47204 1.49728,0.0886 1.1926,0.90962 1.41911,-0.21332 1.40614,-0.28658 1.05153,1.0164 1.45428,0.15449 1.4434,0.3273 0.85913,1.20515 1.49316,0.18471 0.98982,1.13309 0.69879,1.24704 1.09955,0.91346 1.44267,1.32049 0.61144,1.85773 1.15763,1.67523 1.992,0.42244 1.91228,0.0318 1.74487,0.78311 1.83155,-0.60166 1.90354,0.30508 1.84617,-0.11525 1.47465,-1.1167 1.74847,0.61853 1.79088,-0.48216 1.77469,-0.0508 1.61415,-0.73933 1.62879,-0.61199 1.64214,-0.57523 1.19908,1.00425 1.4913,0.47153 1.48531,-0.40095 1.52814,-0.17802 1.31561,-0.70574 0.86972,-1.21346 1.05897,-1.11788 1.52424,-0.21854 1.36866,-0.006 1.36768,0.0523 1.21819,-0.71375 1.41114,-0.0454 1.35819,0.0198 1.35425,0.10521 1.4212,-0.15858 1.23539,0.72026 0.58113,-1.57943 0.48237,-1.61234 0.73159,-1.51473 0.72676,-1.51705 1.9118,0.11356 1.46455,-1.2341 0.75883,-1.62832 1.18088,-1.35378 1.55183,0.85049 1.76928,-0.0338 1.52159,-0.84718 1.7275,-0.22062 1.76349,0.39922 1.75411,-0.43855 1.37833,-1.09883 1.22204,-1.27037 2.39486,-1.52356 2.80383,0.44168 2.34321,-1.30021 1.90791,-1.88176 2.54569,-0.82622 2.64446,0.41239 2.45605,-0.88746 2.56517,-0.48958 2.27093,1.4356 2.48526,1.02055 2.60104,0.67401 2.44208,1.12071 2.65101,-0.52823 2.54045,-0.92359 2.6958,0.96857 2.69484,-0.97125 0.67291,-1.52268 1.4865,-0.74947 1.13421,-1.10697 0.75899,-1.39133 0.91931,-1.41083 0.88805,-1.43071 -0.31166,-1.65473 -0.32353,-1.65245 -1.16971,-1.19863 -0.36544,-1.63444 -0.0417,-1.63023 0.4585,-1.56497 0.84799,-1.40651 -0.30698,-1.61342 -0.42145,-1.58259 0.72034,-1.47082 0.50866,-1.45881 1.35033,-0.75064 1.10627,-1.00246 1.45644,-0.32798 0.58684,-1.37493 0.82071,-1.24949 -0.44359,-1.44207 0.0382,-1.50826 -0.32247,-1.44972 0.73378,-1.29121 0.048,-1.40224 -0.38744,-1.34851 0.36651,-1.38035 0.36907,-1.37966 1.40253,-0.59183 0.68205,-1.36094 1.44725,-0.68695 1.33857,-0.88015 0.81929,-1.38834 1.15179,-1.12789 1.25054,-0.97816 1.43516,-0.67894 1.22844,-1.00293 1.00404,-1.22754 1.753,-0.37933 1.01909,-1.47593 0.93321,-1.42026 1.39955,-0.964 1.19321,-1.32712 0.16275,-1.77722 0.0316,-1.69364 -0.0132,-1.69388 -0.19868,-1.72504 0.48659,-1.66688 0.66011,-1.60223 1.20458,-1.24575 0.95926,-1.40451 1.45004,-0.88894 1.16123,-1.23502 0.60542,-1.58342 1.3306,-1.04329 0.91827,-1.41975 0.68831,-1.52942 0.99664,-1.34894 1.6957,-0.27807 1.53946,-0.76341 1.46282,-0.92337 1.02107,-1.39638 0.58446,-1.60808 0.0331,-1.71067 0.95593,-1.46399 1.56334,-0.78297 1.00962,-1.26867 1.37924,-0.85239 1.17507,-1.08196 1.1652,-1.09259 1.01589,-1.26432 1.28112,-0.9946 0.18443,-1.66242 1.02001,-1.32561 1.16825,-1.13676 0.46295,-1.56292 1.27317,-1.05853 0.42307,-1.60077 1.90474,-0.65561 1.988,-0.3251 1.9611,-0.54263 2.03115,0.12165 0.96845,-1.8713 1.88578,-0.93995 1.98412,-0.77123 1.03833,-1.85833 1.6337,-1.40667 0.64978,-2.05561 -0.32762,-2.18872 1.18484,-1.86921 2.09975,-0.91071 0.90227,-2.1034 1.98321,-0.91086 2.1819,0.0455 1.22248,-0.19322 1.04394,-0.66482 1.11416,-0.53832 1.23632,-0.0517 1.25715,-0.43095 1.25688,0.43172 1.25757,0.35446 0.88439,0.96175 1.25687,-0.19265 1.01542,-0.76536 1.05858,-0.68551 1.24678,-0.18993 1.00805,0.78261 1.25488,0.2322 1.28149,-0.0712 1.14646,0.57696 1.16369,0.99286 1.26118,0.86567 1.37512,0.69837 1.13236,1.04711 1.65169,0.16694 1.09343,1.24914 1.43644,0.74034 1.60407,-0.19595 1.06538,1.17317 1.30002,0.90628 1.32972,1.03552 0.30252,1.658 0.62529,1.46032 0.003,1.58856 0.58195,1.46842 0.0558,1.57854 1.41517,0.14205 1.32766,0.51009 1.49235,0.23664 0.94641,1.17789 0.81157,1.16934 0.43921,1.35391 1.21094,0.80242 0.68242,1.2824 0.36027,1.43746 -0.50996,1.39141 0.19393,1.41955 0.60773,1.29747 1.28337,0.67843 1.09461,0.95348 0.48083,1.37165 0.80653,1.20918 0.51517,1.14247 0.65604,1.06782 0.89695,0.90108 1.15759,0.52581 0.96615,0.84275 1.26562,0.20467 0.59159,1.15814 1.17114,0.56544 0.95768,0.95907 1.35155,0.1015 1.2484,0.29031 1.12944,0.60592 0.74356,1.18022 -0.0915,1.39191 0.72556,1.17622 1.24406,0.60188 0.96488,0.8146 0.64729,1.08426 0.89628,0.90224 1.18041,0.47329 0.32431,1.22132 -0.17476,1.25151 0.30373,1.20086 0.30898,1.19953 1.05373,0.69384 1.2609,-0.0436 0.88328,0.81542 0.87915,0.81987 1.17817,0.38681 1.07677,0.61503 0.63588,1.05849 0.54578,1.10764 0.32411,1.78858 1.1119,1.43796 0.11366,1.85867 -1.02822,1.55253 0.96653,1.60309 1.73159,0.71107 0.26387,1.75762 0.25194,1.75936 1.00279,1.31769 1.37831,0.91769 1.00889,1.42841 1.7051,0.3884 1.10578,1.31383 1.6693,0.40284 1.49767,0.75165 1.00823,1.33845 0.48795,1.05003 0.87947,0.75312 0.60459,0.95926 0.72393,0.87273 -0.16081,1.20336 0.66919,1.01297 0.54843,1.00001 0.38382,1.07399 1.0222,0.71849 0.7657,0.98733 1.23053,0.11567 1.2348,0.0533 0.32506,1.18519 0.32732,1.18458 1.25325,0.37392 0.71965,1.09204 1.69872,1.3726 0.92526,1.97828 2.17385,-0.11871 2.02903,0.78915 0.61193,2.00011 -7.5e-4,2.09163 0.88664,1.98512 1.8814,1.08958 1.75508,0.88205 1.42031,1.35684 1.68374,0.96946 1.71272,0.91727 1.93854,0.12059 1.93615,0.15419 1.83222,0.80968 1.99698,-0.15703 1.92949,0.65477 2.03735,0.0291 1.32595,1.51525 1.40968,1.43769 1.87495,0.84452 0.93087,1.83361 1.25457,1.55336 0.39481,1.95728 1.65077,0.9546 1.62475,0.99824 1.74991,0.79986 1.8994,0.30701 1.64952,1.11388 1.83283,0.77613 0.27103,2.08733 1.53661,1.43848 1.9558,-0.90668 2.15397,0.0874 1.82004,1.03817 1.82305,1.03288 1.67628,1.35239 2.13689,0.26945 1.95627,-0.71468 2.06056,-0.30301 0.94359,2.01369 -0.20148,2.21465 1.50769,1.52973 1.39514,1.63304 1.93107,0.76571 1.67517,1.22847 1.63733,1.31924 2.02265,0.57452 1.70664,0.30897 1.52045,-0.83445 1.70637,-0.40751 1.53265,0.85368 0.60245,1.64781 1.54129,0.83826 1.45847,0.75501 1.40369,0.85255 1.64382,0.16373 1.45867,0.77542 1.73131,-0.0881 1.23692,-1.21458 1.49852,-0.40046 1.54813,0.096 1.49775,0.34776 1.53626,0.064 1.39616,-0.34309 1.33037,0.54507 1.37905,0.14966 1.24942,0.60262 1.35914,-0.23067 1.37791,-0.0427 1.3104,0.45745 1.38492,0.0916 1.49517,0.19774 1.23258,-0.86912 0.87837,-1.13984 1.27919,-0.65911 1.4412,0.0867 1.20725,-0.79189 1.32658,-0.38258 1.37973,-0.0504 1.49928,-0.72804 1.15982,-1.19696 1.5338,-0.58474 1.54703,-0.54881 1.63256,-0.14237 1.63447,0.11857 1.5262,0.72445 1.68498,-0.12245 0.86575,-1.45218 1.28998,-1.09285 1.72343,0.13826 1.55371,-0.75849 1.54967,-0.66545 1.20755,-1.17734 1.66555,-0.0766 1.64508,0.27132 1.426,-0.67702 1.16773,-1.0622 1.15059,-1.16768 0.25966,-1.61863 0.63706,-1.48834 1.44444,-0.73118 0.41448,-1.5136 1.08422,-1.13457 1.36402,-0.75541 1.53494,-0.27412 1.52066,-0.27587 1.43859,-0.56481 1.11251,-1.09858 0.92502,-1.26052 1.29959,-0.8654 1.39318,-0.70493 -0.59796,-0.49766 -0.3092,-0.71387 -0.0175,-0.75714 -0.0773,-0.7534 -0.41929,-0.64566 -0.72755,-0.25172 -0.42948,-0.59243 -0.53834,-0.49562 -0.71275,-0.2503 -0.73495,-0.17469 -0.64717,-0.41196 -0.45723,-0.61603 -0.66412,0.42778 -0.78379,0.0986 -0.73953,-0.21603 -0.7468,-0.18939 -1.60961,0.24954 -1.6244,-0.12026 -1.26284,-1.01263 -1.21646,-1.0679 -1.53909,0.4115 -1.4929,-0.55622 -1.47507,-0.35847 -1.45987,-0.41609 -0.55706,-1.52022 -1.24504,-1.03499 -1.3511,-0.7884 -1.40189,-0.69408 -0.93875,-1.38894 0.13227,-1.6712 -0.88973,-1.36177 -1.40846,-0.81381 -1.62044,1.04069 -1.44255,1.27589 -1.4747,1.40302 -2.0283,0.17096 -0.72932,1.94271 -1.84307,0.95344 -1.77255,0.795 -1.6282,1.05968 -1.82804,-0.57606 -1.88499,-0.34699 -1.9234,0.0145 -1.88479,-0.38374 -1.87838,0.56628 -1.96145,0.0414 L 621.91317,696.79 620,696.43531 l -0.68268,-3.24419 -1.97776,-2.66069 1.09695,-3.05158 0.77043,-3.1499 1.75112,-2.56307 0.84932,-2.9857 1.71857,-2.56944 2.33313,-2.02783 0.43307,-3.05885 1.51121,-2.6945 0.73582,-2.95032 1.04121,-2.85686 2.76315,-1.31178 2.596,-1.61757 2.06406,-2.28065 2.54821,-1.7229 1.79806,3.39581 -0.18446,3.83804 1.05544,3.73409 2.98491,2.47944 3.02999,2.15296 2.04282,3.10532 3.34777,1.67785 2.30519,2.95108 3.64475,-0.30211 3.6273,-0.46717 3.46964,1.41248 3.74102,-0.19556 3.41642,1.21411 3.3969,1.26769 2.79629,2.5899 3.78395,0.45659 -0.10234,-2.70775 -1.14465,-2.45604 0.47184,-2.62899 1.01256,-2.47162 1.35067,-2.27178 2.16006,-1.52298 1.84771,-1.92813 0.6764,-2.58344 -0.009,-2.71431 1.35599,-2.35135 -0.98682,-2.50691 0.24931,-2.68257 0.25258,-2.80874 2.11144,-1.86939 1.94739,-1.75581 2.05445,-1.62925 -0.2245,-2.24636 0.60578,-2.17476 1.58432,-1.63637 0.70225,-2.16669 1.859,-1.12734 1.98925,-0.87733 1.99245,-0.96567 1.4557,-1.66832 -0.65796,-2.00006 -0.0907,-2.10354 0.42069,-2.04298 0.36773,-2.05318 1.10447,-1.80117 0.89574,-1.91356 -0.52649,-2.11911 0.60082,-2.09925 2.00669,0.46339 2.03435,0.32089 2.04101,0.60846 1.46906,1.542 1.80831,-0.9451 1.98114,-0.48819 1.79538,-0.95513 1.93511,-0.6253 1.89785,-0.42299 1.79284,-0.75265 2.03778,0.36527 1.77039,-1.07318 1.78103,-0.96536 1.92496,-0.63127 0.81444,-1.87956 1.40524,-1.49041 2.16812,1.46685 1.89514,1.80577 0.76588,2.50397 1.18644,2.33427 2.64287,-0.36949 2.66549,0.12833 2.22116,1.4581 2.19852,1.49202 2.49564,0.56801 2.25709,-1.20682 2.39884,-0.73088 2.39662,0.73814 2.45051,0.34588 2.47424,-0.053 1.98515,-1.58394 2.49244,-0.4873 2.2069,-0.34314 2.22446,0.19984 2.21252,-0.30303 2.07539,-0.82453 1.72452,-1.52585 2.23932,-0.53627 2.08369,-1.19272 2.33764,0.54751 1.73398,-1.50238 2.02703,-1.07471 0.52757,-2.31756 1.70152,-1.65959 0.31866,-2.28147 0.47673,-2.25375 0.93396,-2.23343 2.06886,-1.25712 -0.31722,-1.7491 0.71723,-1.62652 0.18872,-1.7037 -0.25603,-1.69488 1.17178,-1.43343 1.81071,-0.38613 0.86786,-1.51634 0.92015,-1.48518 -1.69868,-0.89383 -0.72322,-1.77803 -0.11,-1.79975 -0.0906,-1.80083 0.53501,-1.62431 0.32867,-1.67826 0.52849,-1.63748 0.92266,-1.45236 0.30825,-1.33427 -0.4482,-1.29398 -0.97057,-0.90042 -0.7518,-1.08974 -0.2484,-1.25141 -0.63973,-1.10383 -0.47706,-1.22974 0.31083,-1.28188 0.36047,-1.27555 0.5241,-1.21749 1.23082,-0.7112 0.41538,-1.35947 -0.40126,-1.26743 -0.42705,-1.25898 0.12055,-1.32419 0.0647,-1.32808 1.58769,0.54913 1.58944,-0.54402 0.98615,-1.30332 1.47273,-0.70867 0.77501,-1.46429 1.51774,-0.66426 1.6285,0.29376 1.46302,-0.77324 0.32353,-1.56792 0.004,-1.60095 0.85144,-1.37805 0.30273,-1.59132 1.05168,-1.1963 1.17321,-1.07737 1.49116,-0.61155 1.21875,-1.05461 1.00606,-1.18035 1.53283,-0.23622 1.49625,0.25031 1.38865,-0.61082 0.29086,-1.56548 1.18558,-1.06291 1.23615,-0.94444 1.53756,-0.2366 1.53202,0.0954 1.52523,-0.17287 0.78263,1.42425 1.51072,0.59894 1.26163,-0.91447 1.54015,-0.23647 1.41569,0.54578 1.47112,0.37126 0.63089,1.9059 1.06956,1.69896 1.25258,1.63851 1.90183,0.79793 1.77862,0.77156 1.74098,0.85312 1.56334,1.19088 1.86614,0.61626 1.92468,-0.12008 1.92826,0.0256 1.88011,-0.42805 1.90543,-0.29564 1.98429,-0.35159 2.0045,0.20741 2.09188,0.35485 1.38282,1.60925 1.14262,0.71672 0.80846,1.07964 0.94639,1.02309 1.36625,0.27511 0.74987,1.25974 1.36529,0.53405 0.44621,1.31955 0.18909,1.38006 0.93165,0.90524 1.05473,0.75827 0.77087,1.08593 1.17771,0.6217 1.09714,0.73582 0.93351,0.93473 1.09063,0.87983 0.25839,1.37725 0.96906,1.93724 2.03675,0.7373 0.14026,2.01015 0.37,1.98079 1.68816,1.01856 1.12247,1.62091 1.91071,0.36829 1.74116,0.86878 0.82634,1.75429 1.31548,1.42474 1.19088,1.55355 1.71083,0.95118 1.8223,0.54027 1.84892,0.44066 1.83219,0.51051 1.87111,0.34131 0.94933,1.01676 1.25322,0.60372 1.19143,0.72798 0.80431,1.1413 1.40772,0.36499 1.09792,0.95365 1.42442,0.12453 1.40298,-0.27584 -0.0376,1.49031 -0.65826,1.33758 0.6835,1.31302 0.1746,1.46994 0.13109,1.54656 1.1583,1.03314 0.8124,1.32065 1.49577,0.40842 1.43202,0.31508 1.1012,0.96815 1.14704,0.89979 0.63143,1.31401 1.52284,-0.077 1.17427,0.97265 1.11632,0.88684 0.95735,1.05647 0.81923,1.33665 0.0468,1.56702 0.86434,1.35338 1.52094,0.51527 1.55317,-0.0925 1.20241,0.98747 1.5361,0.18658 1.03369,1.15149 1.72942,-0.49662 1.68638,0.62742 1.18422,1.23494 1.2932,1.12031 1.18572,1.26163 1.72565,0.14059 1.59124,0.28111 1.59838,0.23716 0.85662,1.54819 1.24164,1.26056 -0.38482,1.726 0.079,1.76661 1.71147,0.49023 1.27337,1.24416 0.083,1.84041 1.2681,1.33637 -0.35457,3.198 0.60311,3.16056 1.07102,3.05093 2.07293,2.48158 -1.2831,2.85747 -0.71386,3.0499 -1.34504,3.03691 0.93986,3.18569 -1.00174,3.00738 0.14454,3.16653 1.31459,2.83909 0.79705,3.02545 0.78826,3.04007 -0.34908,3.12115 -1.58395,2.72077 -0.42897,3.11889 2.1841,-1.72096 0.89224,-2.6336 2.09145,-1.82225 0.80337,-2.65504 1.95644,-2.13759 2.84491,-0.55087 2.75611,0.53486 2.74647,-0.58238 2.63767,-0.35365 2.05132,-1.69542 2.55311,0.74846 2.56391,-0.71054 2.08355,-1.46808 2.43484,-0.75363 2.41503,-0.72319 L 990,660 z"
       id="landmass-borders"
       inkscape:connector-curvature="0"
       transform="translate(0,287.36218)"
       sodipodi:nodetypes="cccccccccccccccccccccccccccccccccccccccccccccccccccccccccccccccccccccccccccccccccccccccccccccccccccccccccccccccccccccccccccccccccccccccccccccccccccccccccccccccccccccccccccccccccccccccccccccccccccccccccccccccccccccccccccccccccccccccccccccccccccccccccccccccccccccccccccccccccccccccccccccccccccccccccccccccccccccccccccccccccccccccccccccccccccccccccccccccccccccccccccccccccccccccccccccccccccccccccccccccccccccccccccccccccccccccccccccccccccccccccccccccccccccccccccccccccccccccccccccccccccccccccccccccccccccccccccccccccccccccccccccccccccccccccccccccccccccccccccccccccccccccccccccccccccccccccccccccccccccccccccccccccccccccccccccccccccccccccccccccccccccccccccccccccccccccccccccccccccccccccccccccccccccccccccccccccccccccccccccccccccccccccccccccccccccccccccccccccccccccccccccccccccccccccccccccccccccccccccccccccccccccccccccccccccccccccccccccccccccccccccccccccccccccccccccccccccccccccccccccccccccccccccccccccccccccccccccccccccccccccccccccccccc">
      <desc
         id="desc3339"
         style="fill-opacity:1;fill:url(#linearGradient5557)">provides fill borders for the coast</desc>
    </path>
  </g>
</svg>
